<svg id="ePJ3zxUNulp1" xmlns="http://www.w3.org/2000/svg" xmlns:xlink="http://www.w3.org/1999/xlink" viewBox="0 0 1680 1011" shape-rendering="geometricPrecision" text-rendering="geometricPrecision">
<style><![CDATA[
#ePJ3zxUNulp11_to {animation: ePJ3zxUNulp11_to__to 3000ms linear infinite normal forwards}@keyframes ePJ3zxUNulp11_to__to { 0% {transform: translate(-72.455002px,713.909973px)} 100% {transform: translate(1617.544998px,713.909973px)}} #ePJ3zxUNulp15_to {animation: ePJ3zxUNulp15_to__to 3000ms linear infinite normal forwards}@keyframes ePJ3zxUNulp15_to__to { 0% {transform: translate(195.438995px,-62.466004px)} 100% {transform: translate(195.438995px,650.533996px)}}
]]></style>
<defs><linearGradient id="ePJ3zxUNulp12-stroke" x1="559.927" y1="714.411" x2="533.785" y2="714.411" spreadMethod="pad" gradientUnits="userSpaceOnUse" gradientTransform="translate(0 0)"><stop id="ePJ3zxUNulp12-stroke-0" offset="0%" stop-color="rgba(248,112,210,0)"/><stop id="ePJ3zxUNulp12-stroke-1" offset="52.0833%" stop-color="#186dde"/><stop id="ePJ3zxUNulp12-stroke-2" offset="100%" stop-color="rgba(248,112,210,0)"/></linearGradient><linearGradient id="ePJ3zxUNulp13-fill" x1="558.841" y1="714.411" x2="436.777" y2="714.411" spreadMethod="pad" gradientUnits="userSpaceOnUse" gradientTransform="translate(0 0)"><stop id="ePJ3zxUNulp13-fill-0" offset="0%" stop-color="#186dde"/><stop id="ePJ3zxUNulp13-fill-1" offset="100%" stop-color="rgba(248,112,210,0)"/></linearGradient><linearGradient id="ePJ3zxUNulp14-fill" x1="558.841" y1="714.411" x2="436.777" y2="714.411" spreadMethod="pad" gradientUnits="userSpaceOnUse" gradientTransform="translate(0 0)"><stop id="ePJ3zxUNulp14-fill-0" offset="0%" stop-color="#186dde"/><stop id="ePJ3zxUNulp14-fill-1" offset="100%" stop-color="rgba(248,112,210,0)"/></linearGradient><linearGradient id="ePJ3zxUNulp16-fill" x1="194.939" y1="681.919" x2="194.939" y2="559.855" spreadMethod="pad" gradientUnits="userSpaceOnUse" gradientTransform="translate(0 0)"><stop id="ePJ3zxUNulp16-fill-0" offset="0%" stop-color="#186dde"/><stop id="ePJ3zxUNulp16-fill-1" offset="100%" stop-color="rgba(248,112,210,0)"/></linearGradient><linearGradient id="ePJ3zxUNulp17-fill" x1="194.939" y1="681.919" x2="194.939" y2="559.855" spreadMethod="pad" gradientUnits="userSpaceOnUse" gradientTransform="translate(0 0)"><stop id="ePJ3zxUNulp17-fill-0" offset="0%" stop-color="#186dde"/><stop id="ePJ3zxUNulp17-fill-1" offset="100%" stop-color="rgba(248,112,210,0)"/></linearGradient><linearGradient id="ePJ3zxUNulp18-stroke" x1="194.939" y1="683.005" x2="194.939" y2="656.863" spreadMethod="pad" gradientUnits="userSpaceOnUse" gradientTransform="translate(0 0)"><stop id="ePJ3zxUNulp18-stroke-0" offset="0%" stop-color="rgba(248,112,210,0)"/><stop id="ePJ3zxUNulp18-stroke-1" offset="52.0833%" stop-color="#186dde"/><stop id="ePJ3zxUNulp18-stroke-2" offset="100%" stop-color="rgba(248,112,210,0)"/></linearGradient></defs><rect width="1680" height="1011" rx="0" ry="0" fill="none"/><rect style="mix-blend-mode:darken" width="1680" height="820" rx="0" ry="0" fill="none"/><line x1="195.468" y1="713.91" x2="195.468" y2="0" fill="none" stroke="#ccdae2" stroke-opacity="0.46"/><line x1="1483.5" y1="713.91" x2="1483.5" y2="0" fill="none" stroke="#ccdae2" stroke-opacity="0.46"/><line x1="449.468" y1="713.91" x2="449.468" y2="542.669" fill="none" stroke="#ccdae2" stroke-opacity="0.46"/><line x1="0" y1="190.767" x2="1680" y2="190.767" fill="none" stroke="#ccdae2" stroke-opacity="0.46"/><line x1="0" y1="713.41" x2="1680" y2="713.41" fill="none" stroke="#ccdae2" stroke-opacity="0.46"/><line x1="0" y1="542.169" x2="1680" y2="542.169" fill="none" stroke="#ccdae2" stroke-opacity="0.46"/><g id="ePJ3zxUNulp11_to" transform="translate(-72.455002,713.909973)"><g transform="translate(-497.544998,-713.909973)"><path d="M533.421,713.91h26.59" fill="none" stroke="url(#ePJ3zxUNulp12-stroke)" stroke-width="3" stroke-linecap="round"/><path d="M559.236,714.41c.276,0,.5-.223.5-.5c0-.276-.224-.5-.5-.5v1Zm-124.157,0h124.157v-1h-124.157v1Z" fill="url(#ePJ3zxUNulp13-fill)"/><path d="M559.236,714.41c.276,0,.5-.223.5-.5c0-.276-.224-.5-.5-.5v1Zm-124.157,0h124.157v-1h-124.157v1Z" fill="url(#ePJ3zxUNulp14-fill)"/></g></g><g id="ePJ3zxUNulp15_to" transform="translate(195.438995,-62.466004)"><g transform="translate(-195.438995,-620.622985)"><path d="M194.939,682.313c0,.277.224.5.5.5s.5-.223.5-.5h-1Zm0-124.156v124.156h1v-124.156h-1Z" fill="url(#ePJ3zxUNulp16-fill)"/><path d="M194.939,682.313c0,.277.224.5.5.5s.5-.223.5-.5h-1Zm0-124.156v124.156h1v-124.156h-1Z" fill="url(#ePJ3zxUNulp17-fill)"/><path d="M195.439,656.499v26.59" fill="none" stroke="url(#ePJ3zxUNulp18-stroke)" stroke-width="3" stroke-linecap="round"/></g></g></svg>
