<svg width="500" height="500" viewBox="0 0 500 500" fill="none" xmlns="http://www.w3.org/2000/svg">
<path d="M428.471 301.375C428.471 301.375 476.972 246.876 461.552 152.034C446.132 57.1923 366.946 22.2563 314.398 40.5143C261.85 58.7733 250.029 90.5324 207.108 108.708C164.187 126.884 82.7019 114.392 41.9369 175.42C1.17295 236.448 53.2099 337.572 119.456 400.979C185.703 464.387 354.816 424.682 428.471 301.375Z" fill="#B4DBE7"/>
<path opacity="0.7" d="M428.471 301.375C428.471 301.375 476.972 246.876 461.552 152.034C446.132 57.1923 366.946 22.2563 314.398 40.5143C261.85 58.7733 250.029 90.5324 207.108 108.708C164.187 126.884 82.7019 114.392 41.9369 175.42C1.17295 236.448 53.2099 337.572 119.456 400.979C185.703 464.387 354.816 424.682 428.471 301.375Z" fill="white"/>
<path d="M244.884 27.8633V55.0143" stroke="#263238" stroke-miterlimit="10" stroke-linecap="round" stroke-linejoin="round"/>
<path d="M340.279 46.207L321.2 71.891" stroke="#263238" stroke-miterlimit="10" stroke-linecap="round" stroke-linejoin="round"/>
<path d="M363.027 148.941H392.379" stroke="#263238" stroke-miterlimit="10" stroke-linecap="round" stroke-linejoin="round"/>
<path d="M151.691 46.207L170.77 71.891" stroke="#263238" stroke-miterlimit="10" stroke-linecap="round" stroke-linejoin="round"/>
<path d="M128.943 148.941H99.5901" stroke="#263238" stroke-miterlimit="10" stroke-linecap="round" stroke-linejoin="round"/>
<path d="M55.865 457.77H443.009" stroke="#263238" stroke-miterlimit="10" stroke-linecap="round" stroke-linejoin="round"/>
<path d="M435.967 414.312C435.995 414.335 436.893 412.086 436.934 411.937C437.401 410.219 437.295 406.625 435.624 405.537C434.421 404.753 432.891 405.315 432.259 406.54C431.614 407.791 432.013 409.478 432.588 410.677C433.264 412.085 435.965 414.311 435.967 414.312Z" fill="#263238"/>
<path d="M400.955 409.056C402.295 409.858 405.776 410.224 405.779 410.224C405.815 410.228 405.324 407.856 405.276 407.71C404.718 406.019 402.646 403.081 400.652 403.094C399.216 403.104 398.25 404.417 398.399 405.787C398.55 407.187 399.814 408.373 400.955 409.056Z" fill="#263238"/>
<path d="M400.866 419.263C402.31 419.666 405.523 419.164 405.779 419.123C406.046 420.92 406.466 422.741 406.993 424.562C407.293 425.603 407.627 426.643 407.976 427.68C407.747 427.23 407.538 426.829 407.503 426.776C406.518 425.292 403.744 423.005 401.825 423.545C400.442 423.934 399.857 425.455 400.363 426.737C400.879 428.047 402.411 428.858 403.692 429.215C404.992 429.577 407.739 429.205 408.465 429.096C408.603 429.493 408.736 429.891 408.875 430.287C409.544 432.188 410.219 434.082 410.824 435.96C411.038 436.622 411.224 437.281 411.413 437.94C411.208 437.54 411.033 437.206 411.001 437.157C410.017 435.674 407.242 433.386 405.323 433.926C403.94 434.315 403.355 435.836 403.86 437.118C404.376 438.428 405.908 439.238 407.189 439.596C408.429 439.942 410.969 439.621 411.832 439.496C412.005 440.177 412.179 440.859 412.316 441.526C412.399 441.984 412.511 442.419 412.569 442.884C412.636 443.343 412.702 443.797 412.768 444.247C412.862 445.118 412.965 446.016 413.036 446.868C413.09 447.46 413.13 448.025 413.173 448.595C412.968 447.934 412.539 446.648 412.491 446.544C411.743 444.929 409.347 442.247 407.368 442.49C405.942 442.665 405.134 444.08 405.439 445.424C405.751 446.796 407.142 447.83 408.354 448.377C409.688 448.979 412.813 448.985 413.203 448.983C413.27 449.925 413.326 450.843 413.364 451.709C413.476 454.086 413.502 456.144 413.497 457.77H414.811C414.78 456.124 414.709 454.043 414.543 451.641C414.479 450.684 414.392 449.662 414.292 448.614C414.535 448.552 415.914 448.189 417.159 447.689C418.031 448.915 420.46 450.529 420.775 450.736C420.311 451.559 419.851 452.355 419.406 453.098C418.321 454.919 417.319 456.49 416.476 457.77H418.01C418.735 456.6 419.554 455.233 420.427 453.692C420.902 452.859 421.393 451.958 421.888 451.029C422.25 451.154 425.215 452.162 426.674 452.023C427.998 451.897 429.649 451.369 430.388 450.171C431.111 448.998 430.803 447.398 429.51 446.771C427.716 445.901 424.582 447.664 423.352 448.951C423.279 449.027 422.584 449.938 422.154 450.521C422.354 450.14 422.553 449.773 422.754 449.378C423.158 448.601 423.538 447.813 423.949 446.968C424.134 446.553 424.32 446.133 424.508 445.709C424.704 445.293 424.857 444.828 425.036 444.384C425.428 443.346 425.775 442.275 426.1 441.189C426.782 441.541 429.22 442.755 430.553 442.831C431.88 442.907 433.593 442.635 434.504 441.562C435.396 440.512 435.335 438.884 434.152 438.068C432.51 436.937 429.146 438.205 427.734 439.29C427.646 439.358 426.721 440.25 426.222 440.751C426.412 440.096 426.606 439.444 426.777 438.775C427.272 436.845 427.712 434.877 428.16 432.915C428.297 432.314 428.44 431.717 428.582 431.118C428.823 431.246 431.69 432.752 433.183 432.837C434.51 432.913 436.223 432.641 437.134 431.568C438.026 430.518 437.964 428.889 436.782 428.074C435.14 426.943 431.776 428.21 430.364 429.296C430.258 429.378 428.929 430.664 428.607 431.008C428.919 429.69 429.242 428.38 429.613 427.101C430.123 425.336 430.72 423.632 431.421 422.024C431.533 422.084 434.518 423.669 436.048 423.757C437.376 423.833 439.088 423.561 440 422.488C440.892 421.438 440.83 419.81 439.648 418.995C438.006 417.864 434.642 419.131 433.23 420.217C433.138 420.288 432.124 421.267 431.653 421.744C431.601 421.708 431.611 421.715 431.559 421.679C432.331 419.966 433.294 418.403 434.268 416.985C434.83 416.163 435.414 415.408 435.998 414.687C436.524 415.039 438.943 416.622 440.312 416.853C441.623 417.074 443.355 416.992 444.379 416.026C445.381 415.08 445.499 413.455 444.413 412.515C442.905 411.21 439.422 412.101 437.9 413.025C437.817 413.075 437.032 413.679 436.467 414.127C436.736 413.805 437.007 413.469 437.27 413.165C438.257 412.025 439.23 411.042 440.1 410.178C440.599 409.691 441.059 409.26 441.493 408.862C442.189 408.939 444.998 409.211 446.295 408.794C447.561 408.386 449.06 407.515 449.523 406.186C449.977 404.885 449.332 403.388 447.935 403.054C445.996 402.591 443.315 404.986 442.39 406.508C442.31 406.64 441.296 408.839 441.333 408.844C441.333 408.844 441.367 408.848 441.375 408.849C440.949 409.224 440.496 409.631 440.011 410.085C439.121 410.931 438.123 411.896 437.108 413.019C436.091 414.139 435.016 415.384 434.004 416.797C432.987 418.213 431.989 419.753 431.167 421.474C431.158 421.493 431.15 421.515 431.141 421.534C431.225 420.956 431.407 419.332 431.407 419.206C431.404 417.426 430.352 413.987 428.454 413.379C427.086 412.941 425.759 413.887 425.473 415.235C425.181 416.612 426.012 418.134 426.883 419.138C427.866 420.271 430.822 421.625 431.058 421.732C430.29 423.378 429.635 425.129 429.07 426.938C428.746 427.972 428.451 429.023 428.169 430.081C428.226 429.579 428.273 429.13 428.273 429.066C428.27 427.286 427.218 423.847 425.319 423.239C423.951 422.801 422.624 423.747 422.338 425.095C422.046 426.472 422.877 427.994 423.748 428.998C424.632 430.017 427.13 431.222 427.795 431.532C427.691 431.939 427.583 432.344 427.481 432.751C426.99 434.705 426.508 436.658 425.977 438.558C425.79 439.228 425.581 439.881 425.375 440.535C425.425 440.089 425.463 439.713 425.463 439.655C425.46 437.875 424.408 434.436 422.509 433.828C421.141 433.39 419.814 434.335 419.528 435.684C419.236 437.061 420.067 438.582 420.938 439.587C421.782 440.56 424.077 441.692 424.866 442.065C424.634 442.728 424.404 443.393 424.149 444.025C423.965 444.453 423.819 444.877 423.611 445.297C423.414 445.716 423.218 446.132 423.025 446.543C422.623 447.322 422.214 448.128 421.803 448.877C421.521 449.401 421.243 449.894 420.964 450.393C421.158 449.728 421.51 448.419 421.527 448.307C421.704 447.137 421.532 445.177 420.874 443.73C420.901 443.557 420.913 443.383 420.908 443.208C420.864 441.831 419.724 440.666 418.3 440.856C416.324 441.12 414.683 444.32 414.366 446.072C414.347 446.175 414.27 447.319 414.233 448.042C414.19 447.614 414.153 447.198 414.103 446.758C414.011 445.887 413.893 445.021 413.77 444.088C413.695 443.64 413.618 443.187 413.541 442.73C413.475 442.275 413.346 441.803 413.251 441.334C413.005 440.252 412.704 439.168 412.376 438.082C413.138 437.999 415.842 437.667 416.996 436.995C418.145 436.326 419.423 435.154 419.592 433.757C419.757 432.389 418.807 431.065 417.371 431.037C415.378 430.999 413.271 433.913 412.693 435.597C412.657 435.702 412.378 436.957 412.238 437.649C412.036 436.998 411.837 436.347 411.611 435.695C410.959 433.813 410.24 431.928 409.531 430.045C409.314 429.468 409.104 428.891 408.892 428.314C409.163 428.288 412.385 427.962 413.678 427.209C414.827 426.54 416.105 425.368 416.274 423.971C416.439 422.603 415.489 421.279 414.053 421.252C412.06 421.214 409.953 424.128 409.374 425.812C409.331 425.939 408.932 427.745 408.853 428.209C408.386 426.938 407.933 425.667 407.537 424.395C406.988 422.641 406.547 420.891 406.245 419.163C406.371 419.151 409.735 418.826 411.06 418.055C412.209 417.386 413.487 416.215 413.656 414.817C413.821 413.449 412.871 412.125 411.435 412.098C409.441 412.06 407.334 414.973 406.757 416.657C406.719 416.768 406.413 418.144 406.284 418.802C406.221 418.801 406.233 418.801 406.17 418.8C405.868 416.945 405.81 415.11 405.84 413.39C405.855 412.394 405.926 411.442 406.015 410.518C406.648 410.522 409.539 410.507 410.808 409.945C412.024 409.406 413.423 408.382 413.744 407.012C414.058 405.67 413.259 404.25 411.835 404.065C409.858 403.808 407.444 406.473 406.684 408.083C406.643 408.17 406.321 409.107 406.097 409.793C406.144 409.377 406.184 408.946 406.237 408.548C406.431 407.053 406.701 405.696 406.949 404.496C407.096 403.815 407.242 403.202 407.385 402.629C408.008 402.309 410.502 400.987 411.353 399.923C412.184 398.885 412.953 397.331 412.607 395.967C412.268 394.631 410.904 393.739 409.555 394.231C407.682 394.914 406.767 398.392 406.835 400.171C406.841 400.325 407.209 402.719 407.242 402.702C407.242 402.702 407.272 402.686 407.279 402.683C407.13 403.231 406.977 403.82 406.823 404.467C406.548 405.664 406.247 407.019 406.02 408.516C405.789 410.011 405.58 411.642 405.515 413.38C405.447 415.122 405.465 416.958 405.728 418.846C405.731 418.867 405.737 418.889 405.74 418.91C405.491 418.382 404.747 416.927 404.677 416.822C403.692 415.339 400.918 413.051 398.999 413.591C397.616 413.98 397.031 415.501 397.537 416.783C398.053 418.095 399.585 418.906 400.866 419.263Z" fill="#263238"/>
<path opacity="0.3" d="M400.955 409.056C402.295 409.858 405.776 410.224 405.779 410.224C405.815 410.228 405.324 407.856 405.276 407.71C404.718 406.019 402.646 403.081 400.652 403.094C399.216 403.104 398.25 404.417 398.399 405.787C398.55 407.187 399.814 408.373 400.955 409.056Z" fill="#263238"/>
<path opacity="0.3" d="M435.967 414.312C435.995 414.335 436.893 412.086 436.934 411.937C437.401 410.219 437.295 406.625 435.624 405.537C434.421 404.753 432.891 405.315 432.259 406.54C431.614 407.791 432.013 409.478 432.588 410.677C433.264 412.085 435.965 414.311 435.967 414.312Z" fill="#263238"/>
<path opacity="0.3" d="M400.866 419.263C402.31 419.666 405.523 419.164 405.779 419.123C406.046 420.92 406.466 422.741 406.993 424.562C407.293 425.603 407.627 426.643 407.976 427.68C407.747 427.23 407.538 426.829 407.503 426.776C406.518 425.292 403.744 423.005 401.825 423.545C400.442 423.934 399.857 425.455 400.363 426.737C400.879 428.047 402.411 428.858 403.692 429.215C404.992 429.577 407.739 429.205 408.465 429.096C408.603 429.493 408.736 429.891 408.875 430.287C409.544 432.188 410.219 434.082 410.824 435.96C411.038 436.622 411.224 437.281 411.413 437.94C411.208 437.54 411.033 437.206 411.001 437.157C410.017 435.674 407.242 433.386 405.323 433.926C403.94 434.315 403.355 435.836 403.86 437.118C404.376 438.428 405.908 439.238 407.189 439.596C408.429 439.942 410.969 439.621 411.832 439.496C412.005 440.177 412.179 440.859 412.316 441.526C412.399 441.984 412.511 442.419 412.569 442.884C412.636 443.343 412.702 443.797 412.768 444.247C412.862 445.118 412.965 446.016 413.036 446.868C413.09 447.46 413.13 448.025 413.173 448.595C412.968 447.934 412.539 446.648 412.491 446.544C411.743 444.929 409.347 442.247 407.368 442.49C405.942 442.665 405.134 444.08 405.439 445.424C405.751 446.796 407.142 447.83 408.354 448.377C409.688 448.979 412.813 448.985 413.203 448.983C413.27 449.925 413.326 450.843 413.364 451.709C413.476 454.086 413.502 456.144 413.497 457.77H414.811C414.78 456.124 414.709 454.043 414.543 451.641C414.479 450.684 414.392 449.662 414.292 448.614C414.535 448.552 415.914 448.189 417.159 447.689C418.031 448.915 420.46 450.529 420.775 450.736C420.311 451.559 419.851 452.355 419.406 453.098C418.321 454.919 417.319 456.49 416.476 457.77H418.01C418.735 456.6 419.554 455.233 420.427 453.692C420.902 452.859 421.393 451.958 421.888 451.029C422.25 451.154 425.215 452.162 426.674 452.023C427.998 451.897 429.649 451.369 430.388 450.171C431.111 448.998 430.803 447.398 429.51 446.771C427.716 445.901 424.582 447.664 423.352 448.951C423.279 449.027 422.584 449.938 422.154 450.521C422.354 450.14 422.553 449.773 422.754 449.378C423.158 448.601 423.538 447.813 423.949 446.968C424.134 446.553 424.32 446.133 424.508 445.709C424.704 445.293 424.857 444.828 425.036 444.384C425.428 443.346 425.775 442.275 426.1 441.189C426.782 441.541 429.22 442.755 430.553 442.831C431.88 442.907 433.593 442.635 434.504 441.562C435.396 440.512 435.335 438.884 434.152 438.068C432.51 436.937 429.146 438.205 427.734 439.29C427.646 439.358 426.721 440.25 426.222 440.751C426.412 440.096 426.606 439.444 426.777 438.775C427.272 436.845 427.712 434.877 428.16 432.915C428.297 432.314 428.44 431.717 428.582 431.118C428.823 431.246 431.69 432.752 433.183 432.837C434.51 432.913 436.223 432.641 437.134 431.568C438.026 430.518 437.964 428.889 436.782 428.074C435.14 426.943 431.776 428.21 430.364 429.296C430.258 429.378 428.929 430.664 428.607 431.008C428.919 429.69 429.242 428.38 429.613 427.101C430.123 425.336 430.72 423.632 431.421 422.024C431.533 422.084 434.518 423.669 436.048 423.757C437.376 423.833 439.088 423.561 440 422.488C440.892 421.438 440.83 419.81 439.648 418.995C438.006 417.864 434.642 419.131 433.23 420.217C433.138 420.288 432.124 421.267 431.653 421.744C431.601 421.708 431.611 421.715 431.559 421.679C432.331 419.966 433.294 418.403 434.268 416.985C434.83 416.163 435.414 415.408 435.998 414.687C436.524 415.039 438.943 416.622 440.312 416.853C441.623 417.074 443.355 416.992 444.379 416.026C445.381 415.08 445.499 413.455 444.413 412.515C442.905 411.21 439.422 412.101 437.9 413.025C437.817 413.075 437.032 413.679 436.467 414.127C436.736 413.805 437.007 413.469 437.27 413.165C438.257 412.025 439.23 411.042 440.1 410.178C440.599 409.691 441.059 409.26 441.493 408.862C442.189 408.939 444.998 409.211 446.295 408.794C447.561 408.386 449.06 407.515 449.523 406.186C449.977 404.885 449.332 403.388 447.935 403.054C445.996 402.591 443.315 404.986 442.39 406.508C442.31 406.64 441.296 408.839 441.333 408.844C441.333 408.844 441.367 408.848 441.375 408.849C440.949 409.224 440.496 409.631 440.011 410.085C439.121 410.931 438.123 411.896 437.108 413.019C436.091 414.139 435.016 415.384 434.004 416.797C432.987 418.213 431.989 419.753 431.167 421.474C431.158 421.493 431.15 421.515 431.141 421.534C431.225 420.956 431.407 419.332 431.407 419.206C431.404 417.426 430.352 413.987 428.454 413.379C427.086 412.941 425.759 413.887 425.473 415.235C425.181 416.612 426.012 418.134 426.883 419.138C427.866 420.271 430.822 421.625 431.058 421.732C430.29 423.378 429.635 425.129 429.07 426.938C428.746 427.972 428.451 429.023 428.169 430.081C428.226 429.579 428.273 429.13 428.273 429.066C428.27 427.286 427.218 423.847 425.319 423.239C423.951 422.801 422.624 423.747 422.338 425.095C422.046 426.472 422.877 427.994 423.748 428.998C424.632 430.017 427.13 431.222 427.795 431.532C427.691 431.939 427.583 432.344 427.481 432.751C426.99 434.705 426.508 436.658 425.977 438.558C425.79 439.228 425.581 439.881 425.375 440.535C425.425 440.089 425.463 439.713 425.463 439.655C425.46 437.875 424.408 434.436 422.509 433.828C421.141 433.39 419.814 434.335 419.528 435.684C419.236 437.061 420.067 438.582 420.938 439.587C421.782 440.56 424.077 441.692 424.866 442.065C424.634 442.728 424.404 443.393 424.149 444.025C423.965 444.453 423.819 444.877 423.611 445.297C423.414 445.716 423.218 446.132 423.025 446.543C422.623 447.322 422.214 448.128 421.803 448.877C421.521 449.401 421.243 449.894 420.964 450.393C421.158 449.728 421.51 448.419 421.527 448.307C421.704 447.137 421.532 445.177 420.874 443.73C420.901 443.557 420.913 443.383 420.908 443.208C420.864 441.831 419.724 440.666 418.3 440.856C416.324 441.12 414.683 444.32 414.366 446.072C414.347 446.175 414.27 447.319 414.233 448.042C414.19 447.614 414.153 447.198 414.103 446.758C414.011 445.887 413.893 445.021 413.77 444.088C413.695 443.64 413.618 443.187 413.541 442.73C413.475 442.275 413.346 441.803 413.251 441.334C413.005 440.252 412.704 439.168 412.376 438.082C413.138 437.999 415.842 437.667 416.996 436.995C418.145 436.326 419.423 435.154 419.592 433.757C419.757 432.389 418.807 431.065 417.371 431.037C415.378 430.999 413.271 433.913 412.693 435.597C412.657 435.702 412.378 436.957 412.238 437.649C412.036 436.998 411.837 436.347 411.611 435.695C410.959 433.813 410.24 431.928 409.531 430.045C409.314 429.468 409.104 428.891 408.892 428.314C409.163 428.288 412.385 427.962 413.678 427.209C414.827 426.54 416.105 425.368 416.274 423.971C416.439 422.603 415.489 421.279 414.053 421.252C412.06 421.214 409.953 424.128 409.374 425.812C409.331 425.939 408.932 427.745 408.853 428.209C408.386 426.938 407.933 425.667 407.537 424.395C406.988 422.641 406.547 420.891 406.245 419.163C406.371 419.151 409.735 418.826 411.06 418.055C412.209 417.386 413.487 416.215 413.656 414.817C413.821 413.449 412.871 412.125 411.435 412.098C409.441 412.06 407.334 414.973 406.757 416.657C406.719 416.768 406.413 418.144 406.284 418.802C406.221 418.801 406.233 418.801 406.17 418.8C405.868 416.945 405.81 415.11 405.84 413.39C405.855 412.394 405.926 411.442 406.015 410.518C406.648 410.522 409.539 410.507 410.808 409.945C412.024 409.406 413.423 408.382 413.744 407.012C414.058 405.67 413.259 404.25 411.835 404.065C409.858 403.808 407.444 406.473 406.684 408.083C406.643 408.17 406.321 409.107 406.097 409.793C406.144 409.377 406.184 408.946 406.237 408.548C406.431 407.053 406.701 405.696 406.949 404.496C407.096 403.815 407.242 403.202 407.385 402.629C408.008 402.309 410.502 400.987 411.353 399.923C412.184 398.885 412.953 397.331 412.607 395.967C412.268 394.631 410.904 393.739 409.555 394.231C407.682 394.914 406.767 398.392 406.835 400.171C406.841 400.325 407.209 402.719 407.242 402.702C407.242 402.702 407.272 402.686 407.279 402.683C407.13 403.231 406.977 403.82 406.823 404.467C406.548 405.664 406.247 407.019 406.02 408.516C405.789 410.011 405.58 411.642 405.515 413.38C405.447 415.122 405.465 416.958 405.728 418.846C405.731 418.867 405.737 418.889 405.74 418.91C405.491 418.382 404.747 416.927 404.677 416.822C403.692 415.339 400.918 413.051 398.999 413.591C397.616 413.98 397.031 415.501 397.537 416.783C398.053 418.095 399.585 418.906 400.866 419.263Z" fill="#263238"/>
<path d="M63.2931 429.796C63.2751 429.811 62.6971 428.363 62.6701 428.267C62.3691 427.161 62.4381 424.848 63.5131 424.147C64.2881 423.642 65.2721 424.004 65.6791 424.792C66.0941 425.597 65.8371 426.683 65.4671 427.455C65.0341 428.362 63.2951 429.795 63.2931 429.796Z" fill="#263238"/>
<path d="M85.832 426.411C84.97 426.927 82.727 427.163 82.727 427.163C82.704 427.166 83.02 425.639 83.051 425.545C83.41 424.457 84.744 422.565 86.027 422.574C86.952 422.581 87.573 423.425 87.478 424.307C87.38 425.208 86.567 425.972 85.832 426.411Z" fill="#263238"/>
<path d="M85.8891 432.984C84.9591 433.243 82.8911 432.92 82.7261 432.894C82.5541 434.051 82.2841 435.223 81.9451 436.395C81.7521 437.065 81.5371 437.734 81.3131 438.402C81.4611 438.112 81.5951 437.854 81.6181 437.82C82.2521 436.865 84.0381 435.393 85.2731 435.74C86.1631 435.99 86.5401 436.969 86.2141 437.795C85.8821 438.638 84.8961 439.16 84.0711 439.39C83.2341 439.623 81.4661 439.383 80.9981 439.313C80.9091 439.568 80.8241 439.824 80.7341 440.079C80.3041 441.303 79.8691 442.522 79.4791 443.731C79.3411 444.157 79.2211 444.581 79.1001 445.006C79.2321 444.749 79.3451 444.533 79.3651 444.502C79.9991 443.547 81.7851 442.075 83.0201 442.422C83.9101 442.672 84.2871 443.652 83.9611 444.477C83.6291 445.32 82.6431 445.842 81.8181 446.072C81.0201 446.295 79.3851 446.088 78.8291 446.008C78.7181 446.446 78.6051 446.885 78.5171 447.315C78.4641 447.61 78.3921 447.89 78.3541 448.189C78.3111 448.484 78.2681 448.777 78.2261 449.066C78.1651 449.626 78.0991 450.205 78.0531 450.753C78.0181 451.134 77.9921 451.498 77.9651 451.864C78.0971 451.438 78.3731 450.611 78.4041 450.544C78.8861 449.504 80.4281 447.778 81.7021 447.935C82.6201 448.048 83.1401 448.958 82.9441 449.824C82.7431 450.707 81.8481 451.373 81.0671 451.725C80.2081 452.113 78.1971 452.116 77.9461 452.115C77.9031 452.722 77.8671 453.312 77.8421 453.87C77.7701 455.4 77.7531 456.725 77.7561 457.772H76.9101C76.9301 456.713 76.9761 455.373 77.0821 453.827C77.1231 453.211 77.1791 452.553 77.2431 451.879C77.0871 451.839 76.1991 451.605 75.3971 451.283C74.8361 452.072 73.2721 453.111 73.0691 453.244C73.3681 453.774 73.6631 454.286 73.9501 454.765C74.6481 455.937 75.2931 456.948 75.8361 457.772H74.8481C74.3821 457.019 73.8541 456.139 73.2921 455.147C72.9861 454.611 72.6701 454.031 72.3521 453.433C72.1191 453.514 70.2101 454.162 69.2711 454.073C68.4191 453.992 67.3561 453.652 66.8811 452.88C66.4151 452.125 66.6141 451.095 67.4461 450.691C68.6011 450.131 70.6181 451.266 71.4101 452.094C71.4571 452.143 71.9041 452.73 72.1811 453.105C72.0521 452.86 71.9241 452.623 71.7951 452.369C71.5351 451.869 71.2911 451.362 71.0261 450.817C70.9071 450.55 70.7871 450.279 70.6661 450.007C70.5401 449.739 70.4411 449.44 70.3261 449.154C70.0741 448.486 69.8511 447.797 69.6411 447.097C69.2021 447.323 67.6331 448.105 66.7741 448.154C65.9201 448.203 64.8171 448.028 64.2311 447.337C63.6571 446.661 63.6961 445.613 64.4581 445.088C65.5151 444.36 67.6811 445.176 68.5891 445.875C68.6461 445.919 69.2411 446.493 69.5621 446.815C69.4391 446.394 69.3151 445.974 69.2051 445.543C68.8871 444.301 68.6031 443.034 68.3151 441.771C68.2271 441.384 68.1341 441 68.0431 440.614C67.8881 440.696 66.0431 441.666 65.0811 441.721C64.2271 441.77 63.1241 441.595 62.5371 440.904C61.9631 440.228 62.0021 439.18 62.7641 438.655C63.8211 437.927 65.9871 438.743 66.8951 439.442C66.9631 439.495 67.8191 440.323 68.0261 440.544C67.8251 439.696 67.6171 438.852 67.3781 438.029C67.0501 436.893 66.6651 435.796 66.2141 434.761C66.1421 434.8 64.2201 435.82 63.2361 435.876C62.3811 435.925 61.2791 435.75 60.6921 435.059C60.1181 434.383 60.1571 433.335 60.9191 432.81C61.9761 432.082 64.1421 432.898 65.0501 433.597C65.1101 433.643 65.7621 434.273 66.0651 434.58C66.0981 434.557 66.0921 434.561 66.1251 434.538C65.6281 433.435 65.0081 432.429 64.3811 431.517C64.0191 430.988 63.6431 430.502 63.2671 430.037C62.9291 430.264 61.3711 431.283 60.4901 431.431C59.6461 431.573 58.5311 431.52 57.8721 430.899C57.2271 430.29 57.1511 429.244 57.8501 428.639C58.8201 427.799 61.0631 428.372 62.0421 428.967C62.0951 429 62.6001 429.388 62.9641 429.677C62.7911 429.47 62.6161 429.253 62.4471 429.058C61.8121 428.324 61.1851 427.691 60.6251 427.135C60.3041 426.821 60.0081 426.544 59.7281 426.288C59.2801 426.337 57.4711 426.513 56.6371 426.244C55.8221 425.981 54.8571 425.421 54.5591 424.565C54.2671 423.727 54.6821 422.764 55.5811 422.549C56.8291 422.251 58.5551 423.793 59.1511 424.772C59.2021 424.857 59.8551 426.273 59.8321 426.275C59.8321 426.275 59.8101 426.277 59.8051 426.278C60.0791 426.519 60.3711 426.781 60.6831 427.074C61.2561 427.619 61.8981 428.24 62.5521 428.963C63.2071 429.684 63.8981 430.485 64.5501 431.395C65.2051 432.306 65.8471 433.298 66.3761 434.406C66.3821 434.419 66.3871 434.432 66.3931 434.445C66.3391 434.073 66.2221 433.028 66.2221 432.946C66.2241 431.8 66.9011 429.587 68.1231 429.195C69.0041 428.913 69.8581 429.522 70.0421 430.39C70.2301 431.276 69.6951 432.256 69.1341 432.903C68.5011 433.632 66.5981 434.504 66.4461 434.572C66.9411 435.632 67.3621 436.759 67.7261 437.923C67.9351 438.588 68.1241 439.265 68.3061 439.946C68.2691 439.623 68.2391 439.334 68.2391 439.293C68.2411 438.147 68.9181 435.934 70.1401 435.542C71.0211 435.26 71.8751 435.869 72.0591 436.737C72.2471 437.623 71.7121 438.603 71.1511 439.25C70.5821 439.906 68.9741 440.682 68.5461 440.881C68.6131 441.143 68.6821 441.404 68.7481 441.666C69.0641 442.924 69.3741 444.181 69.7161 445.404C69.8361 445.835 69.9711 446.256 70.1031 446.676C70.0711 446.389 70.0461 446.147 70.0461 446.11C70.0481 444.964 70.7251 442.751 71.9471 442.359C72.8281 442.077 73.6821 442.686 73.8661 443.554C74.0541 444.44 73.5191 445.42 72.9581 446.066C72.4151 446.692 70.9371 447.421 70.4301 447.661C70.5791 448.088 70.7281 448.516 70.8911 448.923C71.0091 449.198 71.1041 449.472 71.2381 449.742C71.3651 450.012 71.4911 450.279 71.6151 450.544C71.8741 451.045 72.1371 451.564 72.4011 452.047C72.5831 452.384 72.7621 452.702 72.9411 453.022C72.8161 452.594 72.5901 451.751 72.5791 451.679C72.4651 450.926 72.5761 449.664 72.9991 448.733C72.9811 448.622 72.9741 448.51 72.9771 448.397C73.0061 447.51 73.7391 446.761 74.6561 446.883C75.9281 447.053 76.9851 449.113 77.1881 450.24C77.2001 450.306 77.2501 451.043 77.2731 451.508C77.3011 451.232 77.3241 450.965 77.3561 450.681C77.4151 450.12 77.4911 449.563 77.5701 448.962C77.6191 448.674 77.6681 448.382 77.7171 448.088C77.7601 447.795 77.8421 447.491 77.9041 447.189C78.0621 446.493 78.2561 445.795 78.4671 445.096C77.9761 445.043 76.2361 444.829 75.4931 444.396C74.7531 443.965 73.9311 443.211 73.8221 442.312C73.7161 441.431 74.3271 440.579 75.2521 440.561C76.5351 440.537 77.8921 442.412 78.2641 443.496C78.2871 443.564 78.4671 444.371 78.5571 444.817C78.6871 444.398 78.8151 443.979 78.9611 443.559C79.3811 442.347 79.8441 441.134 80.3001 439.922C80.4401 439.551 80.5751 439.179 80.7121 438.808C80.5371 438.791 78.4631 438.581 77.6311 438.097C76.8911 437.666 76.0681 436.912 75.9601 436.013C75.8541 435.132 76.4651 434.28 77.3901 434.262C78.6731 434.238 80.0291 436.113 80.4021 437.197C80.4301 437.279 80.6871 438.441 80.7381 438.74C81.0381 437.922 81.3301 437.103 81.5851 436.285C81.9381 435.156 82.2221 434.029 82.4171 432.917C82.3361 432.909 80.1701 432.7 79.3181 432.204C78.5781 431.774 77.7561 431.019 77.6471 430.12C77.5411 429.239 78.1521 428.387 79.0771 428.369C80.3601 428.345 81.7171 430.22 82.0891 431.304C82.1141 431.375 82.3101 432.262 82.3941 432.685C82.4341 432.684 82.4271 432.684 82.4671 432.684C82.6611 431.49 82.6991 430.309 82.6791 429.201C82.6691 428.56 82.6241 427.947 82.5661 427.352C82.1591 427.355 80.2971 427.345 79.4811 426.983C78.6981 426.636 77.7981 425.977 77.5911 425.095C77.3891 424.231 77.9031 423.317 78.8201 423.198C80.0931 423.033 81.6471 424.748 82.1361 425.785C82.1631 425.841 82.3691 426.444 82.5141 426.885C82.4841 426.617 82.4581 426.34 82.4241 426.083C82.2991 425.121 82.1261 424.247 81.9661 423.474C81.8711 423.035 81.7771 422.641 81.6851 422.272C81.2841 422.066 79.6791 421.215 79.1311 420.53C78.5961 419.862 78.1011 418.861 78.3241 417.983C78.5431 417.123 79.4201 416.549 80.2891 416.866C81.4951 417.306 82.0831 419.544 82.0401 420.69C82.0361 420.789 81.7991 422.33 81.7781 422.32C81.7781 422.32 81.7581 422.31 81.7541 422.307C81.8501 422.66 81.9481 423.039 82.0471 423.455C82.2241 424.225 82.4181 425.098 82.5641 426.061C82.7131 427.023 82.8471 428.073 82.8891 429.192C82.9321 430.313 82.9211 431.495 82.7521 432.711C82.7501 432.725 82.7461 432.739 82.7441 432.753C82.9041 432.413 83.3831 431.476 83.4281 431.409C84.0621 430.454 85.8481 428.982 87.0831 429.329C87.9731 429.58 88.3501 430.558 88.0241 431.384C87.7001 432.232 86.7141 432.754 85.8891 432.984Z" fill="#263238"/>
<path opacity="0.3" d="M85.832 426.411C84.97 426.927 82.727 427.163 82.727 427.163C82.704 427.166 83.02 425.639 83.051 425.545C83.41 424.457 84.744 422.565 86.027 422.574C86.952 422.581 87.573 423.425 87.478 424.307C87.38 425.208 86.567 425.972 85.832 426.411Z" fill="#263238"/>
<path opacity="0.3" d="M63.2931 429.796C63.2751 429.811 62.6971 428.363 62.6701 428.267C62.3691 427.161 62.4381 424.848 63.5131 424.147C64.2881 423.642 65.2721 424.004 65.6791 424.792C66.0941 425.597 65.8371 426.683 65.4671 427.455C65.0341 428.362 63.2951 429.795 63.2931 429.796Z" fill="#263238"/>
<path opacity="0.3" d="M85.8891 432.984C84.9591 433.243 82.8911 432.92 82.7261 432.894C82.5541 434.051 82.2841 435.223 81.9451 436.395C81.7521 437.065 81.5371 437.734 81.3131 438.402C81.4611 438.112 81.5951 437.854 81.6181 437.82C82.2521 436.865 84.0381 435.393 85.2731 435.74C86.1631 435.99 86.5401 436.969 86.2141 437.795C85.8821 438.638 84.8961 439.16 84.0711 439.39C83.2341 439.623 81.4661 439.383 80.9981 439.313C80.9091 439.568 80.8241 439.824 80.7341 440.079C80.3041 441.303 79.8691 442.522 79.4791 443.731C79.3411 444.157 79.2211 444.581 79.1001 445.006C79.2321 444.749 79.3451 444.533 79.3651 444.502C79.9991 443.547 81.7851 442.075 83.0201 442.422C83.9101 442.672 84.2871 443.652 83.9611 444.477C83.6291 445.32 82.6431 445.842 81.8181 446.072C81.0201 446.295 79.3851 446.088 78.8291 446.008C78.7181 446.446 78.6051 446.885 78.5171 447.315C78.4641 447.61 78.3921 447.89 78.3541 448.189C78.3111 448.484 78.2681 448.777 78.2261 449.066C78.1651 449.626 78.0991 450.205 78.0531 450.753C78.0181 451.134 77.9921 451.498 77.9651 451.864C78.0971 451.438 78.3731 450.611 78.4041 450.544C78.8861 449.504 80.4281 447.778 81.7021 447.935C82.6201 448.048 83.1401 448.958 82.9441 449.824C82.7431 450.707 81.8481 451.373 81.0671 451.725C80.2081 452.113 78.1971 452.116 77.9461 452.115C77.9031 452.722 77.8671 453.312 77.8421 453.87C77.7701 455.4 77.7531 456.725 77.7561 457.772H76.9101C76.9301 456.713 76.9761 455.373 77.0821 453.827C77.1231 453.211 77.1791 452.553 77.2431 451.879C77.0871 451.839 76.1991 451.605 75.3971 451.283C74.8361 452.072 73.2721 453.111 73.0691 453.244C73.3681 453.774 73.6631 454.286 73.9501 454.765C74.6481 455.937 75.2931 456.948 75.8361 457.772H74.8481C74.3821 457.019 73.8541 456.139 73.2921 455.147C72.9861 454.611 72.6701 454.031 72.3521 453.433C72.1191 453.514 70.2101 454.162 69.2711 454.073C68.4191 453.992 67.3561 453.652 66.8811 452.88C66.4151 452.125 66.6141 451.095 67.4461 450.691C68.6011 450.131 70.6181 451.266 71.4101 452.094C71.4571 452.143 71.9041 452.73 72.1811 453.105C72.0521 452.86 71.9241 452.623 71.7951 452.369C71.5351 451.869 71.2911 451.362 71.0261 450.817C70.9071 450.55 70.7871 450.279 70.6661 450.007C70.5401 449.739 70.4411 449.44 70.3261 449.154C70.0741 448.486 69.8511 447.797 69.6411 447.097C69.2021 447.323 67.6331 448.105 66.7741 448.154C65.9201 448.203 64.8171 448.028 64.2311 447.337C63.6571 446.661 63.6961 445.613 64.4581 445.088C65.5151 444.36 67.6811 445.176 68.5891 445.875C68.6461 445.919 69.2411 446.493 69.5621 446.815C69.4391 446.394 69.3151 445.974 69.2051 445.543C68.8871 444.301 68.6031 443.034 68.3151 441.771C68.2271 441.384 68.1341 441 68.0431 440.614C67.8881 440.696 66.0431 441.666 65.0811 441.721C64.2271 441.77 63.1241 441.595 62.5371 440.904C61.9631 440.228 62.0021 439.18 62.7641 438.655C63.8211 437.927 65.9871 438.743 66.8951 439.442C66.9631 439.495 67.8191 440.323 68.0261 440.544C67.8251 439.696 67.6171 438.852 67.3781 438.029C67.0501 436.893 66.6651 435.796 66.2141 434.761C66.1421 434.8 64.2201 435.82 63.2361 435.876C62.3811 435.925 61.2791 435.75 60.6921 435.059C60.1181 434.383 60.1571 433.335 60.9191 432.81C61.9761 432.082 64.1421 432.898 65.0501 433.597C65.1101 433.643 65.7621 434.273 66.0651 434.58C66.0981 434.557 66.0921 434.561 66.1251 434.538C65.6281 433.435 65.0081 432.429 64.3811 431.517C64.0191 430.988 63.6431 430.502 63.2671 430.037C62.9291 430.264 61.3711 431.283 60.4901 431.431C59.6461 431.573 58.5311 431.52 57.8721 430.899C57.2271 430.29 57.1511 429.244 57.8501 428.639C58.8201 427.799 61.0631 428.372 62.0421 428.967C62.0951 429 62.6001 429.388 62.9641 429.677C62.7911 429.47 62.6161 429.253 62.4471 429.058C61.8121 428.324 61.1851 427.691 60.6251 427.135C60.3041 426.821 60.0081 426.544 59.7281 426.288C59.2801 426.337 57.4711 426.513 56.6371 426.244C55.8221 425.981 54.8571 425.421 54.5591 424.565C54.2671 423.727 54.6821 422.764 55.5811 422.549C56.8291 422.251 58.5551 423.793 59.1511 424.772C59.2021 424.857 59.8551 426.273 59.8321 426.275C59.8321 426.275 59.8101 426.277 59.8051 426.278C60.0791 426.519 60.3711 426.781 60.6831 427.074C61.2561 427.619 61.8981 428.24 62.5521 428.963C63.2071 429.684 63.8981 430.485 64.5501 431.395C65.2051 432.306 65.8471 433.298 66.3761 434.406C66.3821 434.419 66.3871 434.432 66.3931 434.445C66.3391 434.073 66.2221 433.028 66.2221 432.946C66.2241 431.8 66.9011 429.587 68.1231 429.195C69.0041 428.913 69.8581 429.522 70.0421 430.39C70.2301 431.276 69.6951 432.256 69.1341 432.903C68.5011 433.632 66.5981 434.504 66.4461 434.572C66.9411 435.632 67.3621 436.759 67.7261 437.923C67.9351 438.588 68.1241 439.265 68.3061 439.946C68.2691 439.623 68.2391 439.334 68.2391 439.293C68.2411 438.147 68.9181 435.934 70.1401 435.542C71.0211 435.26 71.8751 435.869 72.0591 436.737C72.2471 437.623 71.7121 438.603 71.1511 439.25C70.5821 439.906 68.9741 440.682 68.5461 440.881C68.6131 441.143 68.6821 441.404 68.7481 441.666C69.0641 442.924 69.3741 444.181 69.7161 445.404C69.8361 445.835 69.9711 446.256 70.1031 446.676C70.0711 446.389 70.0461 446.147 70.0461 446.11C70.0481 444.964 70.7251 442.751 71.9471 442.359C72.8281 442.077 73.6821 442.686 73.8661 443.554C74.0541 444.44 73.5191 445.42 72.9581 446.066C72.4151 446.692 70.9371 447.421 70.4301 447.661C70.5791 448.088 70.7281 448.516 70.8911 448.923C71.0091 449.198 71.1041 449.472 71.2381 449.742C71.3651 450.012 71.4911 450.279 71.6151 450.544C71.8741 451.045 72.1371 451.564 72.4011 452.047C72.5831 452.384 72.7621 452.702 72.9411 453.022C72.8161 452.594 72.5901 451.751 72.5791 451.679C72.4651 450.926 72.5761 449.664 72.9991 448.733C72.9811 448.622 72.9741 448.51 72.9771 448.397C73.0061 447.51 73.7391 446.761 74.6561 446.883C75.9281 447.053 76.9851 449.113 77.1881 450.24C77.2001 450.306 77.2501 451.043 77.2731 451.508C77.3011 451.232 77.3241 450.965 77.3561 450.681C77.4151 450.12 77.4911 449.563 77.5701 448.962C77.6191 448.674 77.6681 448.382 77.7171 448.088C77.7601 447.795 77.8421 447.491 77.9041 447.189C78.0621 446.493 78.2561 445.795 78.4671 445.096C77.9761 445.043 76.2361 444.829 75.4931 444.396C74.7531 443.965 73.9311 443.211 73.8221 442.312C73.7161 441.431 74.3271 440.579 75.2521 440.561C76.5351 440.537 77.8921 442.412 78.2641 443.496C78.2871 443.564 78.4671 444.371 78.5571 444.817C78.6871 444.398 78.8151 443.979 78.9611 443.559C79.3811 442.347 79.8441 441.134 80.3001 439.922C80.4401 439.551 80.5751 439.179 80.7121 438.808C80.5371 438.791 78.4631 438.581 77.6311 438.097C76.8911 437.666 76.0681 436.912 75.9601 436.013C75.8541 435.132 76.4651 434.28 77.3901 434.262C78.6731 434.238 80.0291 436.113 80.4021 437.197C80.4301 437.279 80.6871 438.441 80.7381 438.74C81.0381 437.922 81.3301 437.103 81.5851 436.285C81.9381 435.156 82.2221 434.029 82.4171 432.917C82.3361 432.909 80.1701 432.7 79.3181 432.204C78.5781 431.774 77.7561 431.019 77.6471 430.12C77.5411 429.239 78.1521 428.387 79.0771 428.369C80.3601 428.345 81.7171 430.22 82.0891 431.304C82.1141 431.375 82.3101 432.262 82.3941 432.685C82.4341 432.684 82.4271 432.684 82.4671 432.684C82.6611 431.49 82.6991 430.309 82.6791 429.201C82.6691 428.56 82.6241 427.947 82.5661 427.352C82.1591 427.355 80.2971 427.345 79.4811 426.983C78.6981 426.636 77.7981 425.977 77.5911 425.095C77.3891 424.231 77.9031 423.317 78.8201 423.198C80.0931 423.033 81.6471 424.748 82.1361 425.785C82.1631 425.841 82.3691 426.444 82.5141 426.885C82.4841 426.617 82.4581 426.34 82.4241 426.083C82.2991 425.121 82.1261 424.247 81.9661 423.474C81.8711 423.035 81.7771 422.641 81.6851 422.272C81.2841 422.066 79.6791 421.215 79.1311 420.53C78.5961 419.862 78.1011 418.861 78.3241 417.983C78.5431 417.123 79.4201 416.549 80.2891 416.866C81.4951 417.306 82.0831 419.544 82.0401 420.69C82.0361 420.789 81.7991 422.33 81.7781 422.32C81.7781 422.32 81.7581 422.31 81.7541 422.307C81.8501 422.66 81.9481 423.039 82.0471 423.455C82.2241 424.225 82.4181 425.098 82.5641 426.061C82.7131 427.023 82.8471 428.073 82.8891 429.192C82.9321 430.313 82.9211 431.495 82.7521 432.711C82.7501 432.725 82.7461 432.739 82.7441 432.753C82.9041 432.413 83.3831 431.476 83.4281 431.409C84.0621 430.454 85.8481 428.982 87.0831 429.329C87.9731 429.58 88.3501 430.558 88.0241 431.384C87.7001 432.232 86.7141 432.754 85.8891 432.984Z" fill="#263238"/>
<path d="M104.967 440.811C104.978 440.82 105.329 439.942 105.344 439.884C105.526 439.214 105.485 437.811 104.833 437.387C104.364 437.081 103.767 437.3 103.52 437.778C103.268 438.266 103.424 438.924 103.648 439.392C103.912 439.942 104.967 440.811 104.967 440.811Z" fill="#263238"/>
<path d="M91.3051 438.764C91.8281 439.077 93.1871 439.219 93.1871 439.219C93.2011 439.22 93.0091 438.296 92.9911 438.239C92.7731 437.579 91.9651 436.433 91.1871 436.438C90.6271 436.442 90.2501 436.954 90.3081 437.489C90.3671 438.034 90.8601 438.497 91.3051 438.764Z" fill="#263238"/>
<path d="M91.2711 442.745C91.8351 442.902 93.0881 442.706 93.1881 442.69C93.2921 443.391 93.4561 444.102 93.6621 444.812C93.7791 445.218 93.9091 445.624 94.0451 446.029C93.9551 445.853 93.8741 445.697 93.8601 445.676C93.4761 445.097 92.3931 444.205 91.6451 444.415C91.1051 444.567 90.8771 445.16 91.0741 445.661C91.2751 446.172 91.8731 446.489 92.3731 446.628C92.8801 446.769 93.9521 446.624 94.2361 446.582C94.2901 446.737 94.3421 446.892 94.3961 447.047C94.6571 447.789 94.9201 448.528 95.1561 449.261C95.2391 449.519 95.3121 449.776 95.3861 450.034C95.3061 449.878 95.2381 449.748 95.2251 449.729C94.8411 449.15 93.7581 448.258 93.0101 448.468C92.4711 448.62 92.2421 449.213 92.4391 449.714C92.6401 450.225 93.2381 450.541 93.7381 450.681C94.2221 450.816 95.2131 450.691 95.5501 450.642C95.6171 450.908 95.6851 451.174 95.7391 451.434C95.7711 451.613 95.8151 451.783 95.8381 451.964C95.8641 452.143 95.8901 452.32 95.9161 452.496C95.9531 452.836 95.9931 453.186 96.0211 453.519C96.0421 453.75 96.0581 453.971 96.0741 454.193C95.9941 453.935 95.8271 453.433 95.8081 453.393C95.5161 452.763 94.5811 451.717 93.8091 451.811C93.2531 451.88 92.9371 452.431 93.0561 452.956C93.1781 453.491 93.7211 453.895 94.1941 454.108C94.7151 454.343 95.9341 454.345 96.0861 454.344C96.1121 454.712 96.1341 455.07 96.1491 455.408C96.1931 456.335 96.2031 457.138 96.2011 457.773H96.7141C96.7021 457.131 96.6741 456.319 96.6101 455.382C96.5851 455.008 96.5511 454.61 96.5121 454.201C96.6071 454.177 97.1451 454.035 97.6311 453.84C97.9711 454.318 98.9191 454.948 99.0421 455.029C98.8611 455.35 98.6821 455.661 98.5081 455.951C98.0851 456.662 97.6941 457.275 97.3651 457.774H97.9641C98.2471 457.317 98.5671 456.784 98.9071 456.183C99.0921 455.858 99.2841 455.507 99.4771 455.144C99.6181 455.193 100.775 455.586 101.345 455.532C101.861 455.483 102.506 455.277 102.794 454.809C103.076 454.351 102.956 453.727 102.452 453.482C101.752 453.143 100.529 453.831 100.049 454.333C100.021 454.363 99.7491 454.718 99.5821 454.946C99.6601 454.797 99.7381 454.654 99.8161 454.5C99.9741 454.197 100.122 453.89 100.282 453.559C100.354 453.397 100.427 453.233 100.5 453.068C100.576 452.906 100.636 452.724 100.706 452.551C100.859 452.146 100.994 451.728 101.121 451.304C101.387 451.441 102.338 451.915 102.859 451.945C103.377 451.975 104.045 451.868 104.401 451.45C104.749 451.04 104.725 450.405 104.264 450.087C103.623 449.646 102.311 450.14 101.76 450.564C101.726 450.59 101.365 450.939 101.17 451.134C101.244 450.878 101.32 450.624 101.386 450.363C101.579 449.61 101.751 448.842 101.925 448.076C101.978 447.841 102.034 447.608 102.09 447.375C102.184 447.425 103.303 448.012 103.885 448.046C104.403 448.076 105.071 447.969 105.427 447.551C105.775 447.141 105.751 446.506 105.29 446.188C104.649 445.747 103.337 446.241 102.786 446.665C102.745 446.697 102.226 447.199 102.1 447.333C102.222 446.819 102.348 446.308 102.493 445.809C102.692 445.12 102.925 444.455 103.199 443.828C103.243 443.851 104.407 444.47 105.004 444.504C105.522 444.534 106.19 444.427 106.546 444.009C106.894 443.599 106.87 442.964 106.408 442.646C105.767 442.205 104.455 442.699 103.904 443.123C103.868 443.151 103.473 443.533 103.289 443.719C103.269 443.705 103.273 443.708 103.252 443.694C103.553 443.026 103.929 442.416 104.309 441.863C104.529 441.542 104.756 441.248 104.984 440.966C105.189 441.103 106.133 441.721 106.667 441.811C107.179 441.897 107.854 441.865 108.254 441.488C108.645 441.119 108.691 440.485 108.267 440.118C107.679 439.609 106.32 439.956 105.726 440.317C105.694 440.337 105.387 440.572 105.167 440.747C105.272 440.622 105.378 440.49 105.48 440.372C105.865 439.927 106.245 439.544 106.584 439.207C106.779 439.017 106.958 438.849 107.128 438.694C107.4 438.724 108.496 438.83 109.002 438.667C109.496 438.508 110.081 438.168 110.262 437.649C110.439 437.141 110.187 436.557 109.642 436.427C108.885 436.246 107.839 437.181 107.478 437.775C107.447 437.826 107.051 438.685 107.065 438.686C107.065 438.686 107.078 438.687 107.081 438.688C106.915 438.834 106.738 438.993 106.549 439.171C106.202 439.501 105.812 439.878 105.416 440.316C105.019 440.753 104.6 441.239 104.205 441.79C103.808 442.342 103.419 442.944 103.098 443.615C103.094 443.623 103.091 443.631 103.088 443.639C103.121 443.414 103.192 442.78 103.192 442.731C103.191 442.036 102.78 440.695 102.04 440.457C101.506 440.286 100.988 440.655 100.877 441.181C100.763 441.718 101.087 442.312 101.427 442.704C101.81 443.146 102.964 443.674 103.056 443.716C102.756 444.358 102.501 445.042 102.28 445.747C102.153 446.15 102.038 446.561 101.929 446.973C101.951 446.777 101.97 446.602 101.969 446.577C101.968 445.882 101.557 444.541 100.817 444.303C100.283 444.132 99.7651 444.501 99.6541 445.027C99.5401 445.564 99.8641 446.158 100.204 446.55C100.549 446.948 101.524 447.418 101.783 447.539C101.742 447.698 101.7 447.856 101.66 448.015C101.468 448.778 101.281 449.539 101.073 450.281C101 450.543 100.919 450.797 100.838 451.052C100.858 450.878 100.873 450.731 100.873 450.709C100.872 450.014 100.461 448.673 99.7201 448.435C99.1861 448.264 98.6691 448.633 98.5571 449.159C98.4431 449.696 98.7671 450.29 99.1071 450.682C99.4361 451.062 100.332 451.504 100.64 451.649C100.55 451.908 100.46 452.167 100.36 452.414C100.288 452.581 100.231 452.747 100.15 452.91C100.073 453.074 99.9971 453.236 99.9211 453.396C99.7641 453.7 99.6051 454.014 99.4441 454.307C99.3341 454.511 99.2261 454.704 99.1171 454.898C99.1931 454.639 99.3301 454.128 99.3371 454.084C99.4061 453.628 99.3391 452.863 99.0821 452.298C99.0931 452.231 99.0971 452.163 99.0951 452.094C99.0781 451.557 98.6331 451.102 98.0781 451.176C97.3071 451.279 96.6671 452.528 96.5431 453.211C96.5361 453.251 96.5061 453.698 96.4911 453.98C96.4741 453.813 96.4601 453.651 96.4411 453.479C96.4051 453.139 96.3591 452.801 96.3111 452.437C96.2821 452.262 96.2521 452.085 96.2221 451.907C96.1961 451.729 96.1461 451.545 96.1091 451.362C96.0131 450.94 95.8951 450.517 95.7681 450.093C96.0651 450.061 97.1201 449.931 97.5711 449.669C98.0191 449.408 98.5181 448.951 98.5841 448.406C98.6481 447.872 98.2781 447.355 97.7171 447.345C96.9391 447.33 96.1171 448.467 95.8911 449.124C95.8771 449.165 95.7681 449.655 95.7131 449.925C95.6341 449.671 95.5571 449.417 95.4681 449.163C95.2131 448.429 94.9331 447.693 94.6561 446.958C94.5711 446.733 94.4891 446.508 94.4061 446.282C94.5121 446.272 95.7691 446.145 96.2741 445.851C96.7221 445.59 97.2211 445.133 97.2871 444.588C97.3511 444.054 96.9811 443.538 96.4201 443.527C95.6421 443.512 94.8201 444.649 94.5941 445.306C94.5771 445.355 94.4211 446.06 94.3911 446.241C94.2091 445.745 94.0321 445.249 93.8781 444.753C93.6641 444.069 93.4921 443.386 93.3741 442.711C93.4231 442.706 94.7361 442.58 95.2531 442.279C95.7011 442.018 96.2001 441.561 96.2661 441.016C96.3301 440.482 95.9601 439.966 95.3991 439.955C94.6211 439.94 93.7991 441.077 93.5731 441.734C93.5581 441.777 93.4391 442.314 93.3881 442.571C93.3641 442.571 93.3681 442.571 93.3441 442.57C93.2261 441.846 93.2041 441.13 93.2151 440.459C93.2211 440.07 93.2481 439.699 93.2831 439.338C93.5301 439.34 94.6581 439.334 95.1531 439.114C95.6271 438.904 96.1731 438.504 96.2991 437.97C96.4221 437.446 96.1101 436.892 95.5541 436.82C94.7831 436.72 93.8411 437.76 93.5441 438.388C93.5281 438.422 93.4031 438.788 93.3151 439.055C93.3331 438.893 93.3491 438.724 93.3701 438.569C93.4461 437.986 93.5511 437.456 93.6481 436.988C93.7051 436.722 93.7631 436.483 93.8181 436.26C94.0611 436.135 95.0341 435.619 95.3661 435.204C95.6901 434.799 95.9911 434.193 95.8551 433.66C95.7231 433.139 95.1901 432.791 94.6641 432.983C93.9331 433.25 93.5761 434.607 93.6031 435.301C93.6051 435.361 93.7491 436.295 93.7621 436.289C93.7621 436.289 93.7741 436.283 93.7771 436.282C93.7191 436.496 93.6591 436.726 93.5991 436.978C93.4921 437.445 93.3741 437.974 93.2861 438.558C93.1961 439.141 93.1141 439.778 93.0891 440.456C93.0631 441.136 93.0691 441.852 93.1721 442.589C93.1731 442.597 93.1751 442.606 93.1771 442.614C93.0801 442.408 92.7901 441.84 92.7621 441.799C92.3781 441.22 91.2951 440.328 90.5461 440.538C90.0071 440.69 89.7781 441.283 89.9751 441.784C90.1731 442.289 90.7711 442.605 91.2711 442.745Z" fill="#263238"/>
<path opacity="0.3" d="M91.3051 438.764C91.8281 439.077 93.1871 439.219 93.1871 439.219C93.2011 439.22 93.0091 438.296 92.9911 438.239C92.7731 437.579 91.9651 436.433 91.1871 436.438C90.6271 436.442 90.2501 436.954 90.3081 437.489C90.3671 438.034 90.8601 438.497 91.3051 438.764Z" fill="#263238"/>
<path opacity="0.3" d="M104.967 440.811C104.978 440.82 105.329 439.942 105.344 439.884C105.526 439.214 105.485 437.811 104.833 437.387C104.364 437.081 103.767 437.3 103.52 437.778C103.268 438.266 103.424 438.924 103.648 439.392C103.912 439.942 104.967 440.811 104.967 440.811Z" fill="#263238"/>
<path opacity="0.3" d="M91.2711 442.745C91.8351 442.902 93.0881 442.706 93.1881 442.69C93.2921 443.391 93.4561 444.102 93.6621 444.812C93.7791 445.218 93.9091 445.624 94.0451 446.029C93.9551 445.853 93.8741 445.697 93.8601 445.676C93.4761 445.097 92.3931 444.205 91.6451 444.415C91.1051 444.567 90.8771 445.16 91.0741 445.661C91.2751 446.172 91.8731 446.489 92.3731 446.628C92.8801 446.769 93.9521 446.624 94.2361 446.582C94.2901 446.737 94.3421 446.892 94.3961 447.047C94.6571 447.789 94.9201 448.528 95.1561 449.261C95.2391 449.519 95.3121 449.776 95.3861 450.034C95.3061 449.878 95.2381 449.748 95.2251 449.729C94.8411 449.15 93.7581 448.258 93.0101 448.468C92.4711 448.62 92.2421 449.213 92.4391 449.714C92.6401 450.225 93.2381 450.541 93.7381 450.681C94.2221 450.816 95.2131 450.691 95.5501 450.642C95.6171 450.908 95.6851 451.174 95.7391 451.434C95.7711 451.613 95.8151 451.783 95.8381 451.964C95.8641 452.143 95.8901 452.32 95.9161 452.496C95.9531 452.836 95.9931 453.186 96.0211 453.519C96.0421 453.75 96.0581 453.971 96.0741 454.193C95.9941 453.935 95.8271 453.433 95.8081 453.393C95.5161 452.763 94.5811 451.717 93.8091 451.811C93.2531 451.88 92.9371 452.431 93.0561 452.956C93.1781 453.491 93.7211 453.895 94.1941 454.108C94.7151 454.343 95.9341 454.345 96.0861 454.344C96.1121 454.712 96.1341 455.07 96.1491 455.408C96.1931 456.335 96.2031 457.138 96.2011 457.773H96.7141C96.7021 457.131 96.6741 456.319 96.6101 455.382C96.5851 455.008 96.5511 454.61 96.5121 454.201C96.6071 454.177 97.1451 454.035 97.6311 453.84C97.9711 454.318 98.9191 454.948 99.0421 455.029C98.8611 455.35 98.6821 455.661 98.5081 455.951C98.0851 456.662 97.6941 457.275 97.3651 457.774H97.9641C98.2471 457.317 98.5671 456.784 98.9071 456.183C99.0921 455.858 99.2841 455.507 99.4771 455.144C99.6181 455.193 100.775 455.586 101.345 455.532C101.861 455.483 102.506 455.277 102.794 454.809C103.076 454.351 102.956 453.727 102.452 453.482C101.752 453.143 100.529 453.831 100.049 454.333C100.021 454.363 99.7491 454.718 99.5821 454.946C99.6601 454.797 99.7381 454.654 99.8161 454.5C99.9741 454.197 100.122 453.89 100.282 453.559C100.354 453.397 100.427 453.233 100.5 453.068C100.576 452.906 100.636 452.724 100.706 452.551C100.859 452.146 100.994 451.728 101.121 451.304C101.387 451.441 102.338 451.915 102.859 451.945C103.377 451.975 104.045 451.868 104.401 451.45C104.749 451.04 104.725 450.405 104.264 450.087C103.623 449.646 102.311 450.14 101.76 450.564C101.726 450.59 101.365 450.939 101.17 451.134C101.244 450.878 101.32 450.624 101.386 450.363C101.579 449.61 101.751 448.842 101.925 448.076C101.978 447.841 102.034 447.608 102.09 447.375C102.184 447.425 103.303 448.012 103.885 448.046C104.403 448.076 105.071 447.969 105.427 447.551C105.775 447.141 105.751 446.506 105.29 446.188C104.649 445.747 103.337 446.241 102.786 446.665C102.745 446.697 102.226 447.199 102.1 447.333C102.222 446.819 102.348 446.308 102.493 445.809C102.692 445.12 102.925 444.455 103.199 443.828C103.243 443.851 104.407 444.47 105.004 444.504C105.522 444.534 106.19 444.427 106.546 444.009C106.894 443.599 106.87 442.964 106.408 442.646C105.767 442.205 104.455 442.699 103.904 443.123C103.868 443.151 103.473 443.533 103.289 443.719C103.269 443.705 103.273 443.708 103.252 443.694C103.553 443.026 103.929 442.416 104.309 441.863C104.529 441.542 104.756 441.248 104.984 440.966C105.189 441.103 106.133 441.721 106.667 441.811C107.179 441.897 107.854 441.865 108.254 441.488C108.645 441.119 108.691 440.485 108.267 440.118C107.679 439.609 106.32 439.956 105.726 440.317C105.694 440.337 105.387 440.572 105.167 440.747C105.272 440.622 105.378 440.49 105.48 440.372C105.865 439.927 106.245 439.544 106.584 439.207C106.779 439.017 106.958 438.849 107.128 438.694C107.4 438.724 108.496 438.83 109.002 438.667C109.496 438.508 110.081 438.168 110.262 437.649C110.439 437.141 110.187 436.557 109.642 436.427C108.885 436.246 107.839 437.181 107.478 437.775C107.447 437.826 107.051 438.685 107.065 438.686C107.065 438.686 107.078 438.687 107.081 438.688C106.915 438.834 106.738 438.993 106.549 439.171C106.202 439.501 105.812 439.878 105.416 440.316C105.019 440.753 104.6 441.239 104.205 441.79C103.808 442.342 103.419 442.944 103.098 443.615C103.094 443.623 103.091 443.631 103.088 443.639C103.121 443.414 103.192 442.78 103.192 442.731C103.191 442.036 102.78 440.695 102.04 440.457C101.506 440.286 100.988 440.655 100.877 441.181C100.763 441.718 101.087 442.312 101.427 442.704C101.81 443.146 102.964 443.674 103.056 443.716C102.756 444.358 102.501 445.042 102.28 445.747C102.153 446.15 102.038 446.561 101.929 446.973C101.951 446.777 101.97 446.602 101.969 446.577C101.968 445.882 101.557 444.541 100.817 444.303C100.283 444.132 99.7651 444.501 99.6541 445.027C99.5401 445.564 99.8641 446.158 100.204 446.55C100.549 446.948 101.524 447.418 101.783 447.539C101.742 447.698 101.7 447.856 101.66 448.015C101.468 448.778 101.281 449.539 101.073 450.281C101 450.543 100.919 450.797 100.838 451.052C100.858 450.878 100.873 450.731 100.873 450.709C100.872 450.014 100.461 448.673 99.7201 448.435C99.1861 448.264 98.6691 448.633 98.5571 449.159C98.4431 449.696 98.7671 450.29 99.1071 450.682C99.4361 451.062 100.332 451.504 100.64 451.649C100.55 451.908 100.46 452.167 100.36 452.414C100.288 452.581 100.231 452.747 100.15 452.91C100.073 453.074 99.9971 453.236 99.9211 453.396C99.7641 453.7 99.6051 454.014 99.4441 454.307C99.3341 454.511 99.2261 454.704 99.1171 454.898C99.1931 454.639 99.3301 454.128 99.3371 454.084C99.4061 453.628 99.3391 452.863 99.0821 452.298C99.0931 452.231 99.0971 452.163 99.0951 452.094C99.0781 451.557 98.6331 451.102 98.0781 451.176C97.3071 451.279 96.6671 452.528 96.5431 453.211C96.5361 453.251 96.5061 453.698 96.4911 453.98C96.4741 453.813 96.4601 453.651 96.4411 453.479C96.4051 453.139 96.3591 452.801 96.3111 452.437C96.2821 452.262 96.2521 452.085 96.2221 451.907C96.1961 451.729 96.1461 451.545 96.1091 451.362C96.0131 450.94 95.8951 450.517 95.7681 450.093C96.0651 450.061 97.1201 449.931 97.5711 449.669C98.0191 449.408 98.5181 448.951 98.5841 448.406C98.6481 447.872 98.2781 447.355 97.7171 447.345C96.9391 447.33 96.1171 448.467 95.8911 449.124C95.8771 449.165 95.7681 449.655 95.7131 449.925C95.6341 449.671 95.5571 449.417 95.4681 449.163C95.2131 448.429 94.9331 447.693 94.6561 446.958C94.5711 446.733 94.4891 446.508 94.4061 446.282C94.5121 446.272 95.7691 446.145 96.2741 445.851C96.7221 445.59 97.2211 445.133 97.2871 444.588C97.3511 444.054 96.9811 443.538 96.4201 443.527C95.6421 443.512 94.8201 444.649 94.5941 445.306C94.5771 445.355 94.4211 446.06 94.3911 446.241C94.2091 445.745 94.0321 445.249 93.8781 444.753C93.6641 444.069 93.4921 443.386 93.3741 442.711C93.4231 442.706 94.7361 442.58 95.2531 442.279C95.7011 442.018 96.2001 441.561 96.2661 441.016C96.3301 440.482 95.9601 439.966 95.3991 439.955C94.6211 439.94 93.7991 441.077 93.5731 441.734C93.5581 441.777 93.4391 442.314 93.3881 442.571C93.3641 442.571 93.3681 442.571 93.3441 442.57C93.2261 441.846 93.2041 441.13 93.2151 440.459C93.2211 440.07 93.2481 439.699 93.2831 439.338C93.5301 439.34 94.6581 439.334 95.1531 439.114C95.6271 438.904 96.1731 438.504 96.2991 437.97C96.4221 437.446 96.1101 436.892 95.5541 436.82C94.7831 436.72 93.8411 437.76 93.5441 438.388C93.5281 438.422 93.4031 438.788 93.3151 439.055C93.3331 438.893 93.3491 438.724 93.3701 438.569C93.4461 437.986 93.5511 437.456 93.6481 436.988C93.7051 436.722 93.7631 436.483 93.8181 436.26C94.0611 436.135 95.0341 435.619 95.3661 435.204C95.6901 434.799 95.9911 434.193 95.8551 433.66C95.7231 433.139 95.1901 432.791 94.6641 432.983C93.9331 433.25 93.5761 434.607 93.6031 435.301C93.6051 435.361 93.7491 436.295 93.7621 436.289C93.7621 436.289 93.7741 436.283 93.7771 436.282C93.7191 436.496 93.6591 436.726 93.5991 436.978C93.4921 437.445 93.3741 437.974 93.2861 438.558C93.1961 439.141 93.1141 439.778 93.0891 440.456C93.0631 441.136 93.0691 441.852 93.1721 442.589C93.1731 442.597 93.1751 442.606 93.1771 442.614C93.0801 442.408 92.7901 441.84 92.7621 441.799C92.3781 441.22 91.2951 440.328 90.5461 440.538C90.0071 440.69 89.7781 441.283 89.9751 441.784C90.1731 442.289 90.7711 442.605 91.2711 442.745Z" fill="#263238"/>
<path d="M359.54 446.78L341.832 445.559C341.832 445.559 310.079 457.772 306.415 458.993C302.751 460.214 338.168 465.71 338.168 465.71L357.098 459.604L377.249 460.215L359.54 446.78Z" fill="#92E3D0" stroke="#263238" stroke-miterlimit="10" stroke-linecap="round" stroke-linejoin="round"/>
<path d="M326.116 442.848L339.362 440.902L346.868 443.237L360.997 436.621C360.997 436.621 359.231 442.848 358.348 445.572C357.465 448.296 354.446 452.869 354.446 452.869L344.219 455.691L334.064 456.08L326.116 442.848Z" fill="#92E3D0"/>
<path opacity="0.5" d="M326.116 442.848L339.362 440.902L346.868 443.237L360.997 436.621C360.997 436.621 359.231 442.848 358.348 445.572C357.465 448.296 354.446 452.869 354.446 452.869L344.219 455.691L334.064 456.08L326.116 442.848Z" fill="white"/>
<path d="M326.116 442.848L339.362 440.902L346.868 443.237L360.997 436.621C360.997 436.621 359.231 442.848 358.348 445.572C357.465 448.296 354.446 452.869 354.446 452.869L344.219 455.691L334.064 456.08L326.116 442.848Z" stroke="#263238" stroke-miterlimit="10" stroke-linecap="round" stroke-linejoin="round"/>
<path d="M349.98 448.675L338.369 449.157L324.195 417.461L324.895 428.412C301.453 437.915 267.201 441.902 237.954 428.554C237.012 428.124 236.089 427.675 235.176 427.215C241.404 441.86 253.568 454.6 270.565 462.358C298.82 475.254 332.121 470.592 354.445 452.868L349.98 448.675Z" fill="#92E3D0" stroke="#263238" stroke-miterlimit="10" stroke-linecap="round" stroke-linejoin="round"/>
<path d="M324.894 428.41L323.183 432.4L313.022 437.35L312.761 443.342L315.627 455.327L312.501 457.933L302.34 463.143" fill="#92E3D0"/>
<path d="M324.894 428.41L323.183 432.4L313.022 437.35L312.761 443.342L315.627 455.327L312.501 457.933L302.34 463.143" stroke="#263238" stroke-miterlimit="10" stroke-linecap="round" stroke-linejoin="round"/>
<path d="M315.627 455.328L313.282 461.06L318.233 463.144" fill="#92E3D0"/>
<path d="M315.627 455.328L313.282 461.06L318.233 463.144" stroke="#263238" stroke-miterlimit="10" stroke-linecap="round" stroke-linejoin="round"/>
<path d="M232.027 446.78L214.319 445.559C214.319 445.559 182.566 457.772 178.902 458.993C175.238 460.214 210.655 465.71 210.655 465.71L229.585 459.604L249.736 460.215L232.027 446.78Z" fill="#92E3D0" stroke="#263238" stroke-miterlimit="10" stroke-linecap="round" stroke-linejoin="round"/>
<path d="M280.267 455.938C280.267 455.938 274.161 457.77 261.948 458.991C249.735 460.212 229.584 459.602 229.584 459.602C229.584 459.602 236.301 466.318 252.788 467.539C269.276 468.76 280.267 455.938 280.267 455.938Z" fill="#92E3D0" stroke="#263238" stroke-miterlimit="10" stroke-linecap="round" stroke-linejoin="round"/>
<path d="M142.437 464.555C142.437 464.555 148.543 462.723 160.756 461.502C172.969 460.281 193.12 460.891 193.12 460.891C193.12 460.891 186.403 454.174 169.916 452.953C153.428 451.732 142.437 464.555 142.437 464.555Z" fill="#92E3D0" stroke="#263238" stroke-miterlimit="10" stroke-linecap="round" stroke-linejoin="round"/>
<path d="M136.425 457.875L118.126 461.806C118.126 461.806 126.794 461.806 129.683 464.951C132.572 468.096 156.277 466.43 156.277 466.43L136.425 457.875Z" fill="#92E3D0" stroke="#263238" stroke-miterlimit="10" stroke-linecap="round" stroke-linejoin="round"/>
<path d="M201.088 451.47L212.951 445.515L221.269 437.566L228.181 445.19L238.222 454.648L238.285 459.827L217.607 457.636L201.088 451.47Z" fill="#92E3D0"/>
<path opacity="0.5" d="M201.088 451.47L212.951 445.515L221.269 437.566L228.181 445.19L238.222 454.648L238.285 459.827L217.607 457.636L201.088 451.47Z" fill="white"/>
<path d="M201.088 451.47L212.951 445.515L221.269 437.566L228.181 445.19L238.222 454.648L238.285 459.827L217.607 457.636L201.088 451.47Z" stroke="#263238" stroke-miterlimit="10" stroke-linecap="round" stroke-linejoin="round"/>
<path d="M238.285 459.826L216.054 454.345L197.81 444.023L185.779 446.862L169.333 450.128L188.391 463.921L205.653 467.657L226.684 464.829L238.285 459.826Z" fill="#92E3D0" stroke="#263238" stroke-miterlimit="10" stroke-linecap="round" stroke-linejoin="round"/>
<path d="M200.117 155.802L207.84 129.122L231.009 122.803L245.051 91.2094L266.816 74.3594L287.878 97.5284L294.197 108.762L325.089 122.101L313.856 167.737L277.347 197.927L249.965 207.054L229.605 202.841L212.755 188.8L200.117 155.802Z" fill="#92E3D4"/>
<path opacity="0.5" d="M200.117 155.802L207.84 129.122L231.009 122.803L245.051 91.2094L266.816 74.3594L287.878 97.5284L294.197 108.762L325.089 122.101L313.856 167.737L277.347 197.927L249.965 207.054L229.605 202.841L212.755 188.8L200.117 155.802Z" fill="white"/>
<path d="M200.117 155.802L207.84 129.122L231.009 122.803L245.051 91.2094L266.816 74.3594L287.878 97.5284L294.197 108.762L325.089 122.101L313.856 167.737L277.347 197.927L249.965 207.054L229.605 202.841L212.755 188.8L200.117 155.802Z" stroke="#263238" stroke-miterlimit="10" stroke-linecap="round" stroke-linejoin="round"/>
<path d="M341.141 100.549L333.311 98.707L327.855 110.61L318.77 122.806L304.026 127.019L292.09 129.125L278.048 154.4L268.219 156.506L247.156 190.908L219.073 172.654L215.563 160.016L204.33 148.08L190.288 148.782L169.927 153.697L163.608 134.038L142.39 127.156C142.359 128.214 142.338 129.274 142.338 130.339C142.334 147.807 146.588 165.415 154.929 180.675C168.794 206.042 193.416 232.651 188.828 264.338C188.039 269.789 187.458 274.284 190.562 278.903L297.611 278.929C302.165 272.6 301.184 264.7 300.894 255.495C300.358 238.525 305.32 221.868 313.771 207.343C320.872 195.138 331.16 184.336 337.067 171.579C342.955 158.862 345.36 144.393 345.364 130.388C345.365 120.018 343.885 110.004 341.141 100.549Z" fill="#92E3D4" stroke="#263238" stroke-miterlimit="10" stroke-linecap="round" stroke-linejoin="round"/>
<path d="M169.927 153.695L181.863 162.822L178.352 174.758L176.948 182.481" stroke="#263238" stroke-miterlimit="10" stroke-linecap="round" stroke-linejoin="round"/>
<path d="M191.533 180.469L187.446 190.915L196.935 209.894" stroke="#263238" stroke-miterlimit="10" stroke-linecap="round" stroke-linejoin="round"/>
<path d="M178.352 174.758L187.002 178.506" stroke="#263238" stroke-miterlimit="10" stroke-linecap="round" stroke-linejoin="round"/>
<path d="M290.349 179.125L289.985 184.589" stroke="#263238" stroke-miterlimit="10" stroke-linecap="round" stroke-linejoin="round"/>
<path d="M278.049 154.398L280.155 163.525L287.176 169.142L290.687 174.057" stroke="#263238" stroke-miterlimit="10" stroke-linecap="round" stroke-linejoin="round"/>
<path d="M280.195 355.367L269.09 377.002C267.891 379.338 265.485 380.808 262.859 380.808H224.985C222.359 380.808 219.953 379.339 218.754 377.002L207.649 355.367H280.195Z" fill="#263238" stroke="#263238" stroke-miterlimit="10" stroke-linecap="round" stroke-linejoin="round"/>
<path d="M297.284 278.906H190.561V354.663H297.284V278.906Z" fill="#263238" stroke="#263238" stroke-miterlimit="10" stroke-linecap="round" stroke-linejoin="round"/>
<path d="M233.506 278.906H204.273V354.663H233.506V278.906Z" fill="white" stroke="#263238" stroke-miterlimit="10" stroke-linecap="round" stroke-linejoin="round"/>
<path d="M297.284 354.664L289.469 364.606C287.671 367.013 284.842 368.43 281.837 368.43H206.006C203.001 368.43 200.173 367.013 198.374 364.606L190.559 354.664H297.284Z" fill="#263238" stroke="#263238" stroke-miterlimit="10" stroke-linecap="round" stroke-linejoin="round"/>
<path d="M233.453 364.606L225.638 354.664H204.592L212.407 364.606C214.206 367.013 217.034 368.43 220.038 368.43H241.084C238.08 368.431 235.252 367.013 233.453 364.606Z" fill="white" stroke="#263238" stroke-miterlimit="10" stroke-linecap="round" stroke-linejoin="round"/>
<path d="M297.284 298.844H190.561V354.665H297.284V298.844Z" fill="#263238" stroke="#263238" stroke-miterlimit="10" stroke-linecap="round" stroke-linejoin="round"/>
<path d="M296.65 311.011L191.674 316.916C189.319 317.049 187.301 315.246 187.169 312.89C187.036 310.535 188.839 308.517 191.195 308.385L296.171 302.48C298.527 302.347 300.544 304.15 300.676 306.505C300.809 308.862 299.006 310.879 296.65 311.011Z" fill="#263238" stroke="#263238" stroke-miterlimit="10" stroke-linecap="round" stroke-linejoin="round"/>
<path d="M191.195 311.892L296.171 305.988C297.981 305.886 299.583 306.932 300.291 308.488C300.564 307.883 300.716 307.214 300.676 306.505C300.543 304.149 298.526 302.347 296.171 302.48L191.195 308.385C188.839 308.518 187.037 310.535 187.169 312.89C187.2 313.435 187.341 313.946 187.554 314.415C188.188 313.008 189.547 311.985 191.195 311.892Z" fill="white" stroke="#263238" stroke-miterlimit="10" stroke-linecap="round" stroke-linejoin="round"/>
<path d="M296.65 348.508L191.674 354.412C189.319 354.544 187.301 352.742 187.169 350.386C187.036 348.03 188.839 346.013 191.195 345.881L296.171 339.976C298.527 339.843 300.544 341.646 300.676 344.001C300.809 346.359 299.006 348.376 296.65 348.508Z" fill="white" stroke="#263238" stroke-miterlimit="10" stroke-linecap="round" stroke-linejoin="round"/>
<path d="M296.65 329.761L191.674 335.666C189.319 335.799 187.301 333.996 187.169 331.64C187.036 329.284 188.839 327.267 191.195 327.135L296.171 321.23C298.527 321.097 300.544 322.9 300.676 325.256C300.809 327.612 299.006 329.629 296.65 329.761Z" fill="#263238" stroke="#263238" stroke-miterlimit="10" stroke-linecap="round" stroke-linejoin="round"/>
<path d="M191.195 330.64L296.171 324.735C297.981 324.633 299.583 325.679 300.291 327.235C300.564 326.63 300.716 325.961 300.676 325.252C300.543 322.896 298.526 321.094 296.171 321.226L191.195 327.131C188.839 327.263 187.037 329.28 187.169 331.636C187.2 332.181 187.341 332.692 187.554 333.161C188.188 331.756 189.547 330.733 191.195 330.64Z" fill="white" stroke="#263238" stroke-miterlimit="10" stroke-linecap="round" stroke-linejoin="round"/>
<path d="M191.195 349.393L296.171 343.488C297.981 343.386 299.583 344.432 300.291 345.988C300.564 345.383 300.716 344.714 300.676 344.005C300.543 341.649 298.526 339.847 296.171 339.98L191.195 345.885C188.839 346.017 187.037 348.035 187.169 350.39C187.2 350.936 187.341 351.446 187.554 351.915C188.188 350.509 189.547 349.486 191.195 349.393Z" fill="#263238" stroke="#263238" stroke-miterlimit="10" stroke-linecap="round" stroke-linejoin="round"/>
<path d="M235.295 235.066C235.015 253.316 233.468 269.947 233.468 269.947" stroke="#263238" stroke-miterlimit="10" stroke-linecap="round" stroke-linejoin="round"/>
<path d="M254.62 259.999C254.427 229.271 257.586 172.436 258.116 150.08C258.497 134.036 270.44 122.102 270.44 143.867C270.44 185.68 234.29 184.134 225.252 164C216.214 143.866 217.036 128.605 228.538 144.712C233.947 152.287 235.359 181.825 235.337 210.996" stroke="#263238" stroke-miterlimit="10" stroke-linecap="round" stroke-linejoin="round"/>
<path d="M254.83 272.414C254.83 272.414 254.762 269.897 254.695 265.727" stroke="#263238" stroke-miterlimit="10" stroke-linecap="round" stroke-linejoin="round"/>
<path d="M294.324 240.836C296.089 229.031 300.329 217.65 306.327 207.343C313.428 195.138 323.716 184.336 329.623 171.579C335.511 158.862 337.916 144.393 337.919 130.388C337.92 127.795 337.828 125.225 337.646 122.68" fill="#92E3D4"/>
<path d="M294.324 240.836C296.089 229.031 300.329 217.65 306.327 207.343C313.428 195.138 323.716 184.336 329.623 171.579C335.511 158.862 337.916 144.393 337.919 130.388C337.92 127.795 337.828 125.225 337.646 122.68" stroke="#263238" stroke-width="2" stroke-miterlimit="10" stroke-linecap="round" stroke-linejoin="round"/>
<path d="M293.277 271.193C294.084 266.516 293.631 261.26 293.449 255.493C293.416 254.446 293.404 253.4 293.412 252.355" fill="#92E3D4"/>
<path d="M293.277 271.193C294.084 266.516 293.631 261.26 293.449 255.493C293.416 254.446 293.404 253.4 293.412 252.355" stroke="#263238" stroke-width="2" stroke-miterlimit="10" stroke-linecap="round" stroke-linejoin="round"/>
</svg>
