<svg width="498" height="483" viewBox="0 0 498 483" fill="none" xmlns="http://www.w3.org/2000/svg">
<path d="M64.8738 232.016C62.7607 232.016 60.6951 231.408 58.9381 230.27C57.1811 229.131 55.8117 227.513 55.0031 225.619C54.1945 223.726 53.9829 221.642 54.3951 219.632C54.8074 217.622 55.8249 215.776 57.3191 214.327C58.8133 212.877 60.717 211.891 62.7894 211.491C64.8619 211.091 67.0101 211.296 68.9623 212.08C70.9146 212.865 72.5832 214.193 73.7571 215.897C74.9311 217.601 75.5577 219.604 75.5577 221.654C75.5553 224.401 74.4289 227.035 72.4258 228.978C70.4227 230.921 67.7066 232.014 64.8738 232.016ZM64.8738 213.085C63.1253 213.085 61.4161 213.588 59.9623 214.53C58.5086 215.472 57.3756 216.812 56.7067 218.378C56.0378 219.945 55.863 221.669 56.2045 223.332C56.5459 224.996 57.3882 226.523 58.6249 227.722C59.8616 228.921 61.4371 229.737 63.1521 230.067C64.8671 230.398 66.6446 230.227 68.2597 229.578C69.8748 228.928 71.255 227.828 72.2258 226.418C73.1965 225.008 73.7142 223.35 73.7133 221.654C73.7108 219.381 72.7786 217.202 71.1213 215.596C69.4639 213.989 67.217 213.086 64.8738 213.085ZM273.739 54.4284C273.552 54.4298 273.369 54.3761 273.215 54.2745C273.06 54.1729 272.941 54.0282 272.873 53.8596C272.805 53.6909 272.791 53.5062 272.834 53.3298C272.877 53.1535 272.973 52.9939 273.112 52.8721L290.708 37.1835C290.796 37.1001 290.9 37.0347 291.015 36.9911C291.13 36.9476 291.253 36.9268 291.376 36.93C291.499 36.9332 291.62 36.9603 291.733 37.0098C291.845 37.0592 291.946 37.13 292.029 37.2179C292.113 37.3058 292.177 37.4091 292.219 37.5216C292.261 37.6341 292.279 37.7535 292.272 37.8729C292.265 37.9923 292.234 38.1091 292.18 38.2166C292.126 38.324 292.05 38.4198 291.957 38.4984L274.361 54.1914C274.192 54.3431 273.969 54.4277 273.739 54.4284Z" fill="#FFC600"/>
<path d="M290.625 55.1118C290.497 55.112 290.371 55.0867 290.255 55.0374C290.138 54.9882 290.033 54.916 289.947 54.8255L273.766 37.7595C273.601 37.5846 273.513 37.353 273.524 37.1156C273.534 36.8783 273.641 36.6546 273.822 36.4939C274.002 36.3332 274.241 36.2486 274.486 36.2586C274.73 36.2687 274.961 36.3726 275.127 36.5476L291.302 53.6136C291.423 53.7414 291.503 53.9005 291.532 54.0715C291.561 54.2425 291.538 54.418 291.467 54.5767C291.395 54.7354 291.277 54.8705 291.127 54.9655C290.978 55.0605 290.803 55.1113 290.625 55.1118ZM331.829 446.744H308.58C308.418 446.744 308.26 446.703 308.119 446.624C307.979 446.546 307.863 446.433 307.782 446.297C307.701 446.161 307.659 446.007 307.659 445.85C307.659 445.693 307.702 445.538 307.783 445.403L319.407 425.872C319.488 425.737 319.605 425.624 319.745 425.546C319.885 425.468 320.043 425.427 320.205 425.427C320.366 425.427 320.525 425.468 320.665 425.546C320.805 425.624 320.922 425.737 321.003 425.872L332.632 445.403C332.713 445.539 332.756 445.693 332.755 445.851C332.755 446.008 332.712 446.163 332.631 446.299C332.55 446.435 332.433 446.548 332.292 446.626C332.151 446.704 331.992 446.745 331.829 446.744ZM310.157 444.955H330.216L320.186 428.109L310.157 444.955Z" fill="#FFC600"/>
<path d="M241.267 400.42C240.806 400.42 244.79 402.942 184.011 362.67C161.841 347.991 143.703 328.284 131.171 305.261C118.639 282.238 112.092 256.595 112.101 230.56V113.594C112.101 113.443 112.141 113.294 112.217 113.162C112.293 113.03 112.402 112.918 112.534 112.838C112.677 112.749 127.23 103.916 150.248 95.2132C171.496 87.1632 204.535 77.6016 241.267 77.6016C277.999 77.6016 311.033 87.1766 332.281 95.2132C355.305 103.916 369.857 112.749 370 112.838C370.132 112.918 370.242 113.03 370.317 113.162C370.393 113.294 370.433 113.443 370.434 113.594V230.56C370.439 256.597 363.89 282.241 351.353 305.264C338.817 328.288 320.674 347.994 298.5 362.67C237.689 402.978 241.71 400.42 241.267 400.42ZM113.945 114.099V230.56C113.937 256.303 120.409 281.659 132.801 304.424C145.192 327.189 163.127 346.675 185.048 361.19L241.267 398.439L297.486 361.19C319.407 346.675 337.342 327.189 349.734 304.424C362.125 281.659 368.598 256.303 368.589 230.56V114.099C366.025 112.588 352.247 104.681 331.571 96.8679C310.48 88.8939 277.69 79.3949 241.267 79.3949C204.844 79.3949 172.054 88.8939 150.963 96.8679C130.287 104.681 116.509 112.588 113.945 114.099Z" fill="#B1E0DE"/>
<path d="M194.935 347.162C175.368 334.206 159.359 316.812 148.299 296.492C137.238 276.172 131.46 253.54 131.467 230.562V124.083C149.156 115.138 192.067 96.3906 241.267 96.3906C290.468 96.3906 333.356 115.12 351.067 124.083V230.562C351.074 253.54 345.296 276.172 334.236 296.492C323.175 316.812 307.166 334.206 287.6 347.162L241.267 377.859L194.935 347.162Z" fill="#398BF7"/>
<path d="M31.4201 292.461H248.714V330.238H31.4201V292.461Z" fill="#F75028"/>
<path d="M59.4465 322.333C59.2019 322.333 58.9673 322.239 58.7943 322.071C58.6214 321.903 58.5242 321.676 58.5242 321.438V300.75C58.5242 300.513 58.6214 300.285 58.7943 300.117C58.9673 299.95 59.2019 299.855 59.4465 299.855C59.691 299.855 59.9256 299.95 60.0986 300.117C60.2715 300.285 60.3687 300.513 60.3687 300.75V321.438C60.3687 321.676 60.2715 321.903 60.0986 322.071C59.9256 322.239 59.691 322.333 59.4465 322.333Z" fill="white"/>
<path d="M50.2104 317.156C50.0077 317.156 49.8107 317.09 49.65 316.971C49.4893 316.851 49.3737 316.683 49.3213 316.493C49.2688 316.303 49.2822 316.102 49.3596 315.92C49.437 315.738 49.5739 315.586 49.7493 315.488L68.2444 305.144C68.3494 305.079 68.4668 305.035 68.5895 305.016C68.7122 304.996 68.8378 305.001 68.9586 305.03C69.0794 305.058 69.193 305.11 69.2925 305.183C69.392 305.255 69.4754 305.346 69.5376 305.451C69.5999 305.555 69.6397 305.671 69.6547 305.79C69.6697 305.91 69.6596 306.032 69.6249 306.148C69.5902 306.263 69.5318 306.371 69.453 306.465C69.3743 306.558 69.2769 306.635 69.1667 306.691C49.4081 317.746 50.5747 317.156 50.2104 317.156Z" fill="white"/>
<path d="M68.7056 317.157C68.3367 317.157 69.4756 317.729 49.7677 306.692C49.567 306.568 49.4233 306.374 49.3668 306.149C49.3102 305.925 49.345 305.689 49.4641 305.489C49.5831 305.289 49.7771 305.142 50.0055 305.078C50.234 305.013 50.4792 305.037 50.69 305.144L69.1667 315.488C69.342 315.587 69.479 315.739 69.5564 315.921C69.6337 316.102 69.6472 316.304 69.5947 316.494C69.5422 316.684 69.4267 316.851 69.266 316.971C69.1052 317.091 68.9083 317.156 68.7056 317.157ZM91.9733 322.505C91.7287 322.505 91.4941 322.411 91.3211 322.243C91.1482 322.076 91.051 321.848 91.051 321.611V300.918C91.051 300.681 91.1482 300.453 91.3211 300.285C91.4941 300.118 91.7287 300.023 91.9733 300.023C92.2178 300.023 92.4524 300.118 92.6254 300.285C92.7983 300.453 92.8955 300.681 92.8955 300.918V321.611C92.8955 321.848 92.7983 322.076 92.6254 322.243C92.4524 322.411 92.2178 322.505 91.9733 322.505Z" fill="white"/>
<path d="M82.7372 317.332C82.5345 317.331 82.3375 317.266 82.1768 317.146C82.0161 317.027 81.9005 316.859 81.848 316.669C81.7956 316.479 81.809 316.278 81.8864 316.096C81.9638 315.914 82.1007 315.762 82.2761 315.664L100.753 305.319C100.858 305.255 100.975 305.211 101.098 305.192C101.221 305.172 101.346 305.177 101.467 305.205C101.588 305.234 101.701 305.286 101.801 305.359C101.9 305.431 101.984 305.522 102.046 305.627C102.108 305.731 102.148 305.847 102.163 305.966C102.178 306.086 102.168 306.207 102.133 306.323C102.099 306.439 102.04 306.547 101.961 306.64C101.883 306.734 101.785 306.811 101.675 306.867C81.9302 317.918 83.0968 317.332 82.7372 317.332Z" fill="white"/>
<path d="M101.209 317.332C100.845 317.332 101.979 317.905 82.2715 306.867C82.0707 306.744 81.9271 306.549 81.8705 306.325C81.8139 306.101 81.8487 305.865 81.9678 305.665C82.0868 305.465 82.2808 305.318 82.5093 305.253C82.7377 305.189 82.9829 305.213 83.1937 305.32L101.67 315.664C101.846 315.763 101.983 315.915 102.06 316.096C102.137 316.278 102.151 316.48 102.098 316.669C102.046 316.859 101.93 317.027 101.77 317.147C101.609 317.267 101.412 317.332 101.209 317.332ZM124.5 322.677C124.255 322.677 124.021 322.582 123.848 322.415C123.675 322.247 123.578 322.019 123.578 321.782V301.094C123.578 300.856 123.675 300.629 123.848 300.461C124.021 300.293 124.255 300.199 124.5 300.199C124.745 300.199 124.979 300.293 125.152 300.461C125.325 300.629 125.422 300.856 125.422 301.094V321.782C125.422 322.019 125.325 322.247 125.152 322.415C124.979 322.582 124.745 322.677 124.5 322.677Z" fill="white"/>
<path d="M115.278 317.53C115.074 317.531 114.875 317.467 114.712 317.347C114.55 317.227 114.433 317.058 114.38 316.867C114.328 316.675 114.342 316.472 114.421 316.29C114.5 316.107 114.639 315.955 114.817 315.857L133.261 305.491C133.473 305.372 133.725 305.34 133.962 305.402C134.198 305.463 134.4 305.614 134.522 305.819C134.645 306.025 134.678 306.27 134.614 306.499C134.55 306.729 134.396 306.924 134.183 307.043C114.452 318.093 115.624 317.53 115.278 317.53Z" fill="white"/>
<path d="M133.722 317.527C133.358 317.527 134.497 318.095 114.789 307.062C114.577 306.943 114.422 306.748 114.358 306.519C114.295 306.289 114.328 306.045 114.45 305.839C114.572 305.633 114.774 305.483 115.01 305.421C115.247 305.36 115.499 305.392 115.711 305.51L134.183 315.832C134.374 315.923 134.526 316.076 134.614 316.264C134.703 316.451 134.721 316.663 134.667 316.862C134.612 317.062 134.489 317.237 134.317 317.358C134.145 317.479 133.935 317.539 133.722 317.527ZM157.018 322.849C156.773 322.849 156.538 322.755 156.365 322.587C156.193 322.419 156.095 322.192 156.095 321.955V301.262C156.095 301.024 156.193 300.797 156.365 300.629C156.538 300.461 156.773 300.367 157.018 300.367C157.262 300.367 157.497 300.461 157.67 300.629C157.843 300.797 157.94 301.024 157.94 301.262V321.955C157.94 322.192 157.843 322.419 157.67 322.587C157.497 322.755 157.262 322.849 157.018 322.849Z" fill="white"/>
<path d="M147.782 317.675C147.579 317.675 147.382 317.61 147.221 317.49C147.06 317.37 146.945 317.203 146.892 317.013C146.84 316.823 146.853 316.621 146.931 316.44C147.008 316.258 147.145 316.106 147.32 316.007L165.793 305.663C165.898 305.598 166.015 305.555 166.138 305.535C166.26 305.516 166.386 305.52 166.507 305.549C166.628 305.578 166.741 305.63 166.841 305.702C166.94 305.775 167.023 305.866 167.086 305.97C167.148 306.075 167.188 306.19 167.203 306.31C167.218 306.43 167.208 306.551 167.173 306.667C167.138 306.783 167.08 306.891 167.001 306.984C166.922 307.078 166.825 307.155 166.715 307.21C146.979 318.266 148.146 317.675 147.782 317.675Z" fill="white"/>
<path d="M166.254 317.675C165.889 317.675 167.028 318.248 147.32 307.21C147.21 307.155 147.113 307.078 147.034 306.984C146.955 306.891 146.897 306.783 146.862 306.667C146.828 306.551 146.817 306.43 146.832 306.31C146.847 306.19 146.887 306.075 146.949 305.97C147.012 305.866 147.095 305.775 147.195 305.702C147.294 305.63 147.408 305.578 147.528 305.549C147.649 305.52 147.775 305.516 147.898 305.535C148.02 305.555 148.138 305.598 148.243 305.663L166.715 316.007C166.89 316.106 167.027 316.258 167.104 316.44C167.182 316.621 167.195 316.823 167.143 317.013C167.09 317.203 166.975 317.37 166.814 317.49C166.653 317.61 166.456 317.675 166.254 317.675ZM196.858 321.106H176.606C176.361 321.106 176.126 321.011 175.953 320.844C175.781 320.676 175.683 320.448 175.683 320.211C175.683 319.974 175.781 319.746 175.953 319.579C176.126 319.411 176.361 319.317 176.606 319.317H196.871C197.116 319.317 197.351 319.411 197.524 319.579C197.696 319.746 197.794 319.974 197.794 320.211C197.794 320.448 197.696 320.676 197.524 320.844C197.351 321.011 197.116 321.106 196.871 321.106H196.858ZM229.924 321.106H209.658C209.413 321.106 209.179 321.011 209.006 320.844C208.833 320.676 208.736 320.448 208.736 320.211C208.736 319.974 208.833 319.746 209.006 319.579C209.179 319.411 209.413 319.317 209.658 319.317H229.924C230.168 319.317 230.403 319.411 230.576 319.579C230.749 319.746 230.846 319.974 230.846 320.211C230.846 320.448 230.749 320.676 230.576 320.844C230.403 321.011 230.168 321.106 229.924 321.106Z" fill="white"/>
<path d="M275.864 209.534H264.12V181.676C264.12 175.798 261.712 170.16 257.426 166.004C253.141 161.847 247.328 159.512 241.267 159.512C235.206 159.512 229.394 161.847 225.108 166.004C220.822 170.16 218.415 175.798 218.415 181.676V209.534H206.67V181.676C206.67 172.777 210.315 164.242 216.803 157.949C223.292 151.656 232.091 148.121 241.267 148.121C250.443 148.121 259.243 151.656 265.731 157.949C272.219 164.242 275.864 172.777 275.864 181.676V209.534Z" fill="white"/>
<path d="M281.933 189.648H200.602C196.868 189.648 193.842 192.584 193.842 196.205V253.668C193.842 257.289 196.868 260.225 200.602 260.225H281.933C285.666 260.225 288.692 257.289 288.692 253.668V196.205C288.692 192.584 285.666 189.648 281.933 189.648Z" fill="#FFC600"/>
<path d="M241.267 227.557C245.683 227.557 249.263 224.085 249.263 219.802C249.263 215.519 245.683 212.047 241.267 212.047C236.851 212.047 233.271 215.519 233.271 219.802C233.271 224.085 236.851 227.557 241.267 227.557Z" fill="white"/>
<path d="M237.551 222.754H244.984V237.83H237.551V222.754Z" fill="white"/>
<path d="M59.9445 54.2695H138.015C139.551 54.2695 141.024 54.8613 142.11 55.9147C143.197 56.9682 143.807 58.3969 143.807 59.8866V127.565L154.223 139.577H59.9445C59.1841 139.577 58.4313 139.432 57.7288 139.15C57.0264 138.867 56.3883 138.453 55.8509 137.932C55.3134 137.41 54.8873 136.791 54.5967 136.109C54.3062 135.428 54.1569 134.698 54.1575 133.96V59.8866C54.1575 58.3977 54.7671 56.9696 55.8522 55.9163C56.9373 54.863 58.4093 54.2707 59.9445 54.2695Z" fill="#08C7D1"/>
<path d="M112.594 116.683C108.919 119.041 104.653 120.389 100.251 120.584C95.849 120.779 91.4746 119.813 87.593 117.79C83.7114 115.766 80.4676 112.761 78.2063 109.092C75.9451 105.424 74.7509 101.23 74.7507 96.9558H66.9487C66.9463 102.675 68.5638 108.286 71.6247 113.174C74.6857 118.063 79.0725 122.042 84.3063 124.678C89.5401 127.313 95.4197 128.503 101.304 128.119C107.187 127.734 112.849 125.789 117.671 122.497C117.853 122.374 118.023 122.234 118.178 122.081L122.305 126.079L126.317 108.025L107.702 111.915L112.594 116.683ZM85.6837 77.2333C89.3587 74.8755 93.6237 73.5274 98.0255 73.3323C102.427 73.1372 106.801 74.1024 110.683 76.1253C114.564 78.1481 117.808 81.1531 120.07 84.8209C122.331 88.4887 123.526 92.6822 123.527 96.9558H131.329C131.331 91.2367 129.713 85.627 126.651 80.7389C123.59 75.8509 119.203 71.8723 113.969 69.2374C108.736 66.6025 102.857 65.4125 96.9731 65.7973C91.0897 66.1821 85.4284 68.1269 80.6068 71.4194C80.4257 71.5436 80.256 71.6827 80.0996 71.8353L75.9727 67.8103L71.9795 85.8692L90.5945 81.9783L85.6837 77.2333Z" fill="white"/>
<path d="M433.882 409.55C451.941 409.55 466.58 395.352 466.58 377.838C466.58 360.323 451.941 346.125 433.882 346.125C415.824 346.125 401.185 360.323 401.185 377.838C401.185 395.352 415.824 409.55 433.882 409.55Z" fill="#FFC600"/>
<path d="M447.983 387.308C453.377 387.308 457.75 383.067 457.75 377.835C457.75 372.604 453.377 368.363 447.983 368.363C442.589 368.363 438.217 372.604 438.217 377.835C438.217 383.067 442.589 387.308 447.983 387.308Z" fill="white"/>
<path d="M422.986 365.344V390.326H390.616C390.525 388.943 389.894 387.646 388.852 386.698C387.81 385.75 386.436 385.223 385.007 385.223C383.579 385.223 382.204 385.75 381.162 386.698C380.12 387.646 379.489 388.943 379.398 390.326H364.218L358.256 386.484L352.436 390.326L346.368 386.484L341.757 390.326H325.231L315.322 378.157L325.231 365.344H422.986Z" fill="#FFC600"/>
<path d="M401.849 377.129H331.175C330.93 377.129 330.695 377.034 330.523 376.867C330.35 376.699 330.252 376.472 330.252 376.234C330.252 375.997 330.35 375.77 330.523 375.602C330.695 375.434 330.93 375.34 331.175 375.34H401.849C402.094 375.34 402.328 375.434 402.501 375.602C402.674 375.77 402.771 375.997 402.771 376.234C402.771 376.472 402.674 376.699 402.501 376.867C402.328 377.034 402.094 377.129 401.849 377.129Z" fill="white"/>
<path d="M437.428 331.947C437.184 331.947 436.949 331.853 436.776 331.686C436.603 331.518 436.506 331.29 436.506 331.053V325.686C436.506 325.449 436.603 325.222 436.776 325.054C436.949 324.886 437.184 324.792 437.428 324.792C437.673 324.792 437.908 324.886 438.08 325.054C438.253 325.222 438.351 325.449 438.351 325.686V331.053C438.351 331.29 438.253 331.518 438.08 331.686C437.908 331.853 437.673 331.947 437.428 331.947ZM437.428 321.214C437.184 321.214 436.949 321.12 436.776 320.952C436.603 320.784 436.506 320.557 436.506 320.32V314.953C436.506 314.716 436.603 314.488 436.776 314.321C436.949 314.153 437.184 314.059 437.428 314.059C437.673 314.059 437.908 314.153 438.08 314.321C438.253 314.488 438.351 314.716 438.351 314.953V320.32C438.351 320.557 438.253 320.784 438.08 320.952C437.908 321.12 437.673 321.214 437.428 321.214ZM437.428 310.481C437.184 310.481 436.949 310.387 436.776 310.219C436.603 310.051 436.506 309.824 436.506 309.586V304.22C436.506 303.982 436.603 303.755 436.776 303.587C436.949 303.42 437.184 303.325 437.428 303.325C437.673 303.325 437.908 303.42 438.08 303.587C438.253 303.755 438.351 303.982 438.351 304.22V309.586C438.351 309.824 438.253 310.051 438.08 310.219C437.908 310.387 437.673 310.481 437.428 310.481ZM437.428 299.747C437.184 299.747 436.949 299.653 436.776 299.486C436.603 299.318 436.506 299.09 436.506 298.853V293.486C436.506 293.249 436.603 293.022 436.776 292.854C436.949 292.686 437.184 292.592 437.428 292.592C437.673 292.592 437.908 292.686 438.08 292.854C438.253 293.022 438.351 293.249 438.351 293.486V298.853C438.351 299.09 438.253 299.318 438.08 299.486C437.908 299.653 437.673 299.747 437.428 299.747ZM437.428 289.014C437.184 289.014 436.949 288.92 436.776 288.752C436.603 288.584 436.506 288.357 436.506 288.12V282.753C436.506 282.516 436.603 282.288 436.776 282.121C436.949 281.953 437.184 281.859 437.428 281.859C437.673 281.859 437.908 281.953 438.08 282.121C438.253 282.288 438.351 282.516 438.351 282.753V288.12C438.351 288.357 438.253 288.584 438.08 288.752C437.908 288.92 437.673 289.014 437.428 289.014ZM437.428 278.281C437.184 278.281 436.949 278.187 436.776 278.019C436.603 277.851 436.506 277.624 436.506 277.386V272.02C436.506 271.782 436.603 271.555 436.776 271.387C436.949 271.219 437.184 271.125 437.428 271.125C437.673 271.125 437.908 271.219 438.08 271.387C438.253 271.555 438.351 271.782 438.351 272.02V277.386C438.351 277.624 438.253 277.851 438.08 278.019C437.908 278.187 437.673 278.281 437.428 278.281ZM437.428 267.547C437.184 267.547 436.949 267.453 436.776 267.286C436.603 267.118 436.506 266.89 436.506 266.653V261.286C436.506 261.049 436.603 260.822 436.776 260.654C436.949 260.486 437.184 260.392 437.428 260.392C437.673 260.392 437.908 260.486 438.08 260.654C438.253 260.822 438.351 261.049 438.351 261.286V266.653C438.351 266.89 438.253 267.118 438.08 267.286C437.908 267.453 437.673 267.547 437.428 267.547ZM437.428 256.814C437.184 256.814 436.949 256.72 436.776 256.552C436.603 256.384 436.506 256.157 436.506 255.92V250.553C436.506 250.316 436.603 250.088 436.776 249.921C436.949 249.753 437.184 249.659 437.428 249.659C437.673 249.659 437.908 249.753 438.08 249.921C438.253 250.088 438.351 250.316 438.351 250.553V255.92C438.351 256.157 438.253 256.384 438.08 256.552C437.908 256.72 437.673 256.814 437.428 256.814ZM437.428 246.081C437.184 246.081 436.949 245.987 436.776 245.819C436.603 245.651 436.506 245.424 436.506 245.186V239.82C436.506 239.582 436.603 239.355 436.776 239.187C436.949 239.019 437.184 238.925 437.428 238.925C437.673 238.925 437.908 239.019 438.08 239.187C438.253 239.355 438.351 239.582 438.351 239.82V245.186C438.351 245.424 438.253 245.651 438.08 245.819C437.908 245.987 437.673 246.081 437.428 246.081ZM437.428 235.347C437.184 235.347 436.949 235.253 436.776 235.086C436.603 234.918 436.506 234.69 436.506 234.453V229.086C436.506 228.849 436.603 228.622 436.776 228.454C436.949 228.286 437.184 228.192 437.428 228.192C437.673 228.192 437.908 228.286 438.08 228.454C438.253 228.622 438.351 228.849 438.351 229.086V234.453C438.351 234.69 438.253 234.918 438.08 235.086C437.908 235.253 437.673 235.347 437.428 235.347ZM437.428 224.614C437.184 224.614 436.949 224.52 436.776 224.352C436.603 224.184 436.506 223.957 436.506 223.72V218.353C436.506 218.116 436.603 217.888 436.776 217.721C436.949 217.553 437.184 217.459 437.428 217.459C437.673 217.459 437.908 217.553 438.08 217.721C438.253 217.888 438.351 218.116 438.351 218.353V223.72C438.351 223.957 438.253 224.184 438.08 224.352C437.908 224.52 437.673 224.614 437.428 224.614ZM434.422 216.797H428.889C428.644 216.797 428.409 216.702 428.237 216.535C428.064 216.367 427.966 216.139 427.966 215.902C427.966 215.665 428.064 215.438 428.237 215.27C428.409 215.102 428.644 215.008 428.889 215.008H434.422C434.667 215.008 434.901 215.102 435.074 215.27C435.247 215.438 435.344 215.665 435.344 215.902C435.344 216.139 435.247 216.367 435.074 216.535C434.901 216.702 434.667 216.797 434.422 216.797ZM423.355 216.797H417.822C417.577 216.797 417.343 216.702 417.17 216.535C416.997 216.367 416.9 216.139 416.9 215.902C416.9 215.665 416.997 215.438 417.17 215.27C417.343 215.102 417.577 215.008 417.822 215.008H423.355C423.6 215.008 423.834 215.102 424.007 215.27C424.18 215.438 424.278 215.665 424.278 215.902C424.278 216.139 424.18 216.367 424.007 216.535C423.834 216.702 423.6 216.797 423.355 216.797ZM412.289 216.797H406.755C406.511 216.797 406.276 216.702 406.103 216.535C405.93 216.367 405.833 216.139 405.833 215.902C405.833 215.665 405.93 215.438 406.103 215.27C406.276 215.102 406.511 215.008 406.755 215.008H412.289C412.533 215.008 412.768 215.102 412.941 215.27C413.114 215.438 413.211 215.665 413.211 215.902C413.211 216.139 413.114 216.367 412.941 216.535C412.768 216.702 412.533 216.797 412.289 216.797ZM401.222 216.797H395.689C395.444 216.797 395.209 216.702 395.037 216.535C394.864 216.367 394.766 216.139 394.766 215.902C394.766 215.665 394.864 215.438 395.037 215.27C395.209 215.102 395.444 215.008 395.689 215.008H401.222C401.467 215.008 401.701 215.102 401.874 215.27C402.047 215.438 402.144 215.665 402.144 215.902C402.144 216.139 402.047 216.367 401.874 216.535C401.701 216.702 401.467 216.797 401.222 216.797ZM390.155 216.797H384.622C384.377 216.797 384.143 216.702 383.97 216.535C383.797 216.367 383.7 216.139 383.7 215.902C383.7 215.665 383.797 215.438 383.97 215.27C384.143 215.102 384.377 215.008 384.622 215.008H390.155C390.4 215.008 390.634 215.102 390.807 215.27C390.98 215.438 391.078 215.665 391.078 215.902C391.078 216.139 390.98 216.367 390.807 216.535C390.634 216.702 390.4 216.797 390.155 216.797ZM379.089 216.797H373.555C373.311 216.797 373.076 216.702 372.903 216.535C372.73 216.367 372.633 216.139 372.633 215.902C372.633 215.665 372.73 215.438 372.903 215.27C373.076 215.102 373.311 215.008 373.555 215.008H379.089C379.333 215.008 379.568 215.102 379.741 215.27C379.914 215.438 380.011 215.665 380.011 215.902C380.011 216.139 379.914 216.367 379.741 216.535C379.568 216.702 379.333 216.797 379.089 216.797Z" fill="#08C7D1"/>
<path d="M348.047 75.4307C347.91 75.4328 347.775 75.4056 347.651 75.3509C347.526 75.2963 347.416 75.2156 347.328 75.1146C347.24 75.0136 347.176 74.8949 347.141 74.7671C347.105 74.6392 347.1 74.5054 347.124 74.3752L353.778 38.9552C353.822 38.7215 353.959 38.5142 354.16 38.3787C354.361 38.2433 354.609 38.1908 354.85 38.2329C355.091 38.2751 355.305 38.4083 355.445 38.6033C355.584 38.7983 355.638 39.0391 355.595 39.2727L348.95 74.6883C348.914 74.8952 348.803 75.083 348.638 75.2188C348.472 75.3545 348.263 75.4295 348.047 75.4307ZM371.928 86.3921C371.752 86.3914 371.581 86.3421 371.433 86.2501C371.285 86.1582 371.168 86.0272 371.094 85.8728C371.021 85.7183 370.994 85.5467 371.018 85.378C371.041 85.2094 371.114 85.0507 371.227 84.9207L395.251 57.4702C395.409 57.2893 395.635 57.1769 395.879 57.1576C396.123 57.1383 396.364 57.2137 396.551 57.3673C396.737 57.5209 396.853 57.7401 396.873 57.9766C396.893 58.2131 396.815 58.4476 396.657 58.6285L372.629 86.079C372.542 86.1772 372.434 86.256 372.313 86.3101C372.192 86.3641 372.061 86.3921 371.928 86.3921ZM383.077 108.816C382.886 108.816 382.7 108.759 382.544 108.653C382.388 108.546 382.27 108.395 382.206 108.221C382.124 107.998 382.137 107.753 382.242 107.539C382.347 107.325 382.534 107.16 382.764 107.081L421.608 93.6102C421.838 93.5308 422.092 93.5434 422.313 93.6453C422.534 93.7472 422.704 93.93 422.786 94.1536C422.868 94.3772 422.855 94.6232 422.75 94.8375C422.645 95.0518 422.456 95.2168 422.226 95.2963C380.555 109.746 383.322 108.816 383.077 108.816ZM78.435 443.396C70.0681 443.398 61.8463 441.276 54.5864 437.242C54.4813 437.184 54.3892 437.105 54.3153 437.012C54.2414 436.919 54.1872 436.812 54.1557 436.699C54.1242 436.585 54.1161 436.467 54.1319 436.35C54.1476 436.234 54.1869 436.121 54.2474 436.019C54.308 435.917 54.3886 435.828 54.4848 435.756C54.5809 435.685 54.6907 435.632 54.8078 435.602C54.9249 435.571 55.0471 435.563 55.1673 435.578C55.2876 435.594 55.4035 435.632 55.5086 435.691C65.7002 441.358 77.7359 443.045 89.1648 440.407C100.594 437.77 110.556 431.006 117.024 421.494C123.492 411.983 125.978 400.437 123.977 389.21C121.976 377.982 115.637 367.917 106.253 361.063C96.8679 354.209 85.1424 351.082 73.4638 352.318C61.7853 353.555 51.0319 359.063 43.3935 367.72C35.755 376.377 31.8058 387.532 32.3502 398.914C32.8945 410.296 37.8913 421.048 46.3232 428.982C46.4529 429.155 46.5146 429.366 46.4973 429.579C46.48 429.792 46.3848 429.992 46.2289 430.143C46.0729 430.293 45.8666 430.385 45.6472 430.401C45.4277 430.417 45.2095 430.356 45.0321 430.23C37.0579 422.715 32.0257 412.744 30.7971 402.026C29.5686 391.308 32.2202 380.509 38.2978 371.479C44.3755 362.448 53.5011 355.748 64.112 352.525C74.7229 349.302 86.1589 349.758 96.4617 353.813C106.764 357.869 115.293 365.272 120.587 374.755C125.881 384.239 127.611 395.212 125.481 405.796C123.35 416.381 117.492 425.917 108.91 432.773C100.327 439.63 89.554 443.379 78.435 443.378V443.396Z" fill="#F75028"/>
<path d="M112.594 415.963C109.139 421.789 104.162 426.628 98.1643 429.993C92.1663 433.358 85.3596 435.13 78.4304 435.13C71.5012 435.13 64.6945 433.358 58.6965 429.993C52.6985 426.628 47.7213 421.789 44.2667 415.963C47.7226 410.14 52.7 405.303 58.6974 401.939C64.6947 398.576 71.5002 396.805 78.4281 396.805C85.3559 396.805 92.1614 398.576 98.1588 401.939C104.156 405.303 109.134 410.14 112.59 415.963H112.594Z" fill="#F75028"/>
<path d="M78.435 398.471C87.9569 398.471 95.676 390.984 95.676 381.749C95.676 372.514 87.9569 365.027 78.435 365.027C68.9131 365.027 61.1941 372.514 61.1941 381.749C61.1941 390.984 68.9131 398.471 78.435 398.471Z" fill="#F75028"/>
<path d="M161.956 397.33H156.423C156.178 397.33 155.944 397.236 155.771 397.068C155.598 396.9 155.501 396.673 155.501 396.436C155.501 396.198 155.598 395.971 155.771 395.803C155.944 395.635 156.178 395.541 156.423 395.541H161.956C162.201 395.541 162.435 395.635 162.608 395.803C162.781 395.971 162.878 396.198 162.878 396.436C162.878 396.673 162.781 396.9 162.608 397.068C162.435 397.236 162.201 397.33 161.956 397.33ZM150.889 397.33H145.356C145.111 397.33 144.877 397.236 144.704 397.068C144.531 396.9 144.434 396.673 144.434 396.436C144.434 396.198 144.531 395.971 144.704 395.803C144.877 395.635 145.111 395.541 145.356 395.541H150.889C151.134 395.541 151.369 395.635 151.542 395.803C151.714 395.971 151.812 396.198 151.812 396.436C151.812 396.673 151.714 396.9 151.542 397.068C151.369 397.236 151.134 397.33 150.889 397.33ZM139.823 397.33H134.289C134.045 397.33 133.81 397.236 133.637 397.068C133.464 396.9 133.367 396.673 133.367 396.436C133.367 396.198 133.464 395.971 133.637 395.803C133.81 395.635 134.045 395.541 134.289 395.541H139.823C140.067 395.541 140.302 395.635 140.475 395.803C140.648 395.971 140.745 396.198 140.745 396.436C140.745 396.673 140.648 396.9 140.475 397.068C140.302 397.236 140.067 397.33 139.823 397.33ZM166.567 396.436C166.323 396.436 166.088 396.341 165.915 396.174C165.742 396.006 165.645 395.778 165.645 395.541V390.174C165.645 389.937 165.742 389.71 165.915 389.542C166.088 389.374 166.323 389.28 166.567 389.28C166.812 389.28 167.046 389.374 167.219 389.542C167.392 389.71 167.489 389.937 167.489 390.174V395.541C167.489 395.778 167.392 396.006 167.219 396.174C167.046 396.341 166.812 396.436 166.567 396.436ZM166.567 385.702C166.323 385.702 166.088 385.608 165.915 385.44C165.742 385.272 165.645 385.045 165.645 384.808V379.441C165.645 379.204 165.742 378.976 165.915 378.809C166.088 378.641 166.323 378.547 166.567 378.547C166.812 378.547 167.046 378.641 167.219 378.809C167.392 378.976 167.489 379.204 167.489 379.441V384.808C167.489 385.045 167.392 385.272 167.219 385.44C167.046 385.608 166.812 385.702 166.567 385.702ZM166.567 374.969C166.323 374.969 166.088 374.875 165.915 374.707C165.742 374.539 165.645 374.312 165.645 374.074V368.708C165.645 368.471 165.742 368.243 165.915 368.075C166.088 367.908 166.323 367.813 166.567 367.813C166.812 367.813 167.046 367.908 167.219 368.075C167.392 368.243 167.489 368.471 167.489 368.708V374.074C167.489 374.312 167.392 374.539 167.219 374.707C167.046 374.875 166.812 374.969 166.567 374.969ZM166.567 364.236C166.323 364.236 166.088 364.141 165.915 363.974C165.742 363.806 165.645 363.578 165.645 363.341V357.974C165.645 357.737 165.742 357.51 165.915 357.342C166.088 357.174 166.323 357.08 166.567 357.08C166.812 357.08 167.046 357.174 167.219 357.342C167.392 357.51 167.489 357.737 167.489 357.974V363.341C167.489 363.578 167.392 363.806 167.219 363.974C167.046 364.141 166.812 364.236 166.567 364.236ZM166.567 353.502C166.323 353.502 166.088 353.408 165.915 353.24C165.742 353.072 165.645 352.845 165.645 352.608V347.241C165.645 347.004 165.742 346.776 165.915 346.609C166.088 346.441 166.323 346.347 166.567 346.347C166.812 346.347 167.046 346.441 167.219 346.609C167.392 346.776 167.489 347.004 167.489 347.241V352.608C167.489 352.845 167.392 353.072 167.219 353.24C167.046 353.408 166.812 353.502 166.567 353.502ZM166.567 342.769C166.323 342.769 166.088 342.675 165.915 342.507C165.742 342.339 165.645 342.112 165.645 341.874V336.508C165.645 336.271 165.742 336.043 165.915 335.875C166.088 335.708 166.323 335.613 166.567 335.613C166.812 335.613 167.046 335.708 167.219 335.875C167.392 336.043 167.489 336.271 167.489 336.508V341.874C167.489 342.112 167.392 342.339 167.219 342.507C167.046 342.675 166.812 342.769 166.567 342.769Z" fill="#08C7D1"/>
</svg>
