<svg width="500" height="500" viewBox="0 0 500 500" fill="none" xmlns="http://www.w3.org/2000/svg">
<path d="M432.293 123.048C429.347 121.375 426.431 119.663 423.531 117.911C392.314 99.0463 246.428 13.5033 188.303 26.2933C123.04 40.6543 -1.89196 266.861 38.188 328.555C78.267 390.249 264.186 489.315 310.181 468.228C356.177 447.141 469.159 242.353 473.852 193.68C477.859 152.121 442.666 128.937 432.293 123.048Z" fill="#92E3D4"/>
<path opacity="0.7" d="M432.293 123.048C429.347 121.375 426.431 119.663 423.531 117.911C392.314 99.0463 246.428 13.5033 188.303 26.2933C123.04 40.6543 -1.89196 266.861 38.188 328.555C78.267 390.249 264.186 489.315 310.181 468.228C356.177 447.141 469.159 242.353 473.852 193.68C477.859 152.121 442.666 128.937 432.293 123.048Z" fill="white"/>
<path d="M376.376 422.143C376.376 422.143 375.122 415.371 370.607 410.856C366.092 406.341 360.574 405.84 356.561 404.585C352.548 403.331 348.535 400.07 348.535 400.07C348.535 400.07 353.301 411.106 356.31 414.868C359.32 418.63 363.333 421.139 365.841 421.64C368.35 422.143 376.376 422.143 376.376 422.143Z" fill="#92E3D4" stroke="#263238" stroke-miterlimit="10"/>
<path d="M383.901 381.011C383.901 381.011 383.901 374.74 386.409 371.731C388.917 368.721 402.211 364.457 402.211 364.457C402.211 364.457 398.449 372.232 393.182 376.496C387.914 380.76 383.901 381.011 383.901 381.011Z" fill="#92E3D4" stroke="#263238" stroke-miterlimit="10"/>
<path d="M380.39 386.278C380.39 386.278 377.38 386.027 376.377 378.001C375.374 369.975 380.139 355.176 380.139 355.176C380.139 355.176 385.155 367.215 384.403 374.74C383.65 382.265 382.898 382.014 380.39 386.278Z" fill="#92E3D4" stroke="#263238" stroke-miterlimit="10"/>
<path d="M384.403 407.849C384.403 407.849 384.905 397.315 391.677 393.552C398.449 389.79 407.98 386.027 407.98 386.027C407.98 386.027 405.221 395.307 401.459 399.321C397.697 403.334 393.934 408.1 390.423 409.354C386.911 410.608 384.403 407.849 384.403 407.849Z" fill="#92E3D4" stroke="#263238" stroke-miterlimit="10"/>
<path d="M374.621 390.29C374.621 390.29 371.862 382.765 364.337 376.997C356.812 371.228 352.548 370.977 352.548 370.977C352.548 370.977 354.304 381.512 360.323 386.779C366.344 392.046 374.621 390.29 374.621 390.29Z" fill="#92E3D4" stroke="#263238" stroke-miterlimit="10"/>
<path d="M380.64 439.954V378.754" stroke="#263238" stroke-miterlimit="10"/>
<path d="M380.891 425.905L367.849 414.117" stroke="#263238" stroke-miterlimit="10"/>
<path d="M381.142 411.608L395.188 398.816" stroke="#263238" stroke-miterlimit="10"/>
<path d="M380.64 395.055L364.337 383.266" stroke="#263238" stroke-miterlimit="10"/>
<path d="M381.142 383.769L389.419 375.742" stroke="#263238" stroke-miterlimit="10"/>
<path d="M359.186 445.736C359.186 445.736 377.012 437.318 380.726 437.071C384.44 436.823 402.513 445.984 402.513 445.984L359.186 445.736Z" fill="#263238" stroke="#263238" stroke-miterlimit="10"/>
<path d="M114.732 422.143C114.732 422.143 113.478 415.371 108.963 410.856C104.448 406.341 98.9301 405.84 94.9171 404.585C90.9041 403.331 86.8911 400.07 86.8911 400.07C86.8911 400.07 91.6571 411.106 94.6661 414.868C97.6761 418.63 101.689 421.139 104.197 421.64C106.705 422.143 114.732 422.143 114.732 422.143Z" fill="#92E3D4" stroke="#263238" stroke-miterlimit="10"/>
<path d="M122.256 381.011C122.256 381.011 122.256 374.74 124.764 371.731C127.272 368.722 140.566 364.457 140.566 364.457C140.566 364.457 136.804 372.232 131.537 376.496C126.269 380.76 122.256 381.011 122.256 381.011Z" fill="#92E3D4" stroke="#263238" stroke-miterlimit="10"/>
<path d="M118.745 386.278C118.745 386.278 115.735 386.027 114.732 378.001C113.729 369.975 118.494 355.176 118.494 355.176C118.494 355.176 123.51 367.215 122.758 374.74C122.005 382.265 121.253 382.014 118.745 386.278Z" fill="#92E3D4" stroke="#263238" stroke-miterlimit="10"/>
<path d="M122.758 407.849C122.758 407.849 123.26 397.315 130.032 393.552C136.804 389.79 146.335 386.027 146.335 386.027C146.335 386.027 143.576 395.307 139.814 399.321C136.052 403.334 132.289 408.1 128.778 409.354C125.266 410.608 122.758 407.849 122.758 407.849Z" fill="#92E3D4" stroke="#263238" stroke-miterlimit="10"/>
<path d="M112.976 390.29C112.976 390.29 110.217 382.765 102.692 376.997C95.1671 371.228 90.9041 370.977 90.9041 370.977C90.9041 370.977 92.6601 381.512 98.6791 386.779C104.699 392.046 112.976 390.29 112.976 390.29Z" fill="#92E3D4" stroke="#263238" stroke-miterlimit="10"/>
<path d="M118.996 439.954V378.754" stroke="#263238" stroke-miterlimit="10"/>
<path d="M119.246 425.905L106.204 414.117" stroke="#263238" stroke-miterlimit="10"/>
<path d="M119.497 411.608L133.543 398.816" stroke="#263238" stroke-miterlimit="10"/>
<path d="M118.996 395.055L102.692 383.266" stroke="#263238" stroke-miterlimit="10"/>
<path d="M119.497 383.769L127.774 375.742" stroke="#263238" stroke-miterlimit="10"/>
<path d="M97.542 445.736C97.542 445.736 115.368 437.318 119.082 437.071C122.796 436.823 140.869 445.984 140.869 445.984L97.542 445.736Z" fill="#263238" stroke="#263238" stroke-miterlimit="10"/>
<path d="M450.652 445.949H43.8379" stroke="#263238" stroke-miterlimit="10"/>
<path d="M173.309 73.0981C173.309 73.0981 162.03 59.8281 150.75 59.8281C139.47 59.8281 135.489 66.4631 131.508 68.4531C127.527 70.4441 118.238 65.1361 110.939 64.4721C103.64 63.8091 98.9961 72.4341 96.3421 73.7611C93.6881 75.0881 87.7171 71.1071 81.0821 73.7611C74.4471 76.4151 74.4471 79.7331 71.7931 79.7331C69.1391 79.7331 63.1681 76.4151 58.5231 76.4151C53.8781 76.4151 46.5801 83.0501 46.5801 83.0501H204.493C204.493 83.0501 201.176 76.4151 191.887 74.4251C182.598 72.4341 182.598 76.4151 173.309 73.0981Z" stroke="#263238" stroke-miterlimit="10"/>
<path d="M443.353 168.642C443.353 168.642 436.263 160.301 429.173 160.301C422.083 160.301 419.581 164.472 417.078 165.723C414.576 166.974 408.737 163.638 404.149 163.221C399.561 162.804 396.642 168.226 394.974 169.06C393.306 169.894 389.552 167.392 385.382 169.06C381.211 170.728 381.211 172.814 379.543 172.814C377.875 172.814 374.121 170.729 371.202 170.729C368.283 170.729 363.695 174.9 363.695 174.9H462.955C462.955 174.9 460.87 170.729 455.031 169.478C449.192 168.225 449.192 170.727 443.353 168.642Z" stroke="#263238" stroke-miterlimit="10"/>
<path d="M136.967 170.925C136.967 170.925 132.462 165.625 127.957 165.625C123.452 165.625 121.862 168.275 120.272 169.07C118.682 169.865 114.972 167.745 112.057 167.48C109.142 167.215 107.287 170.66 106.227 171.19C105.167 171.72 102.782 170.13 100.132 171.19C97.4821 172.25 97.4821 173.575 96.4221 173.575C95.3621 173.575 92.9771 172.25 91.1221 172.25C89.2671 172.25 86.3521 174.9 86.3521 174.9H149.422C149.422 174.9 148.097 172.25 144.387 171.455C140.677 170.66 140.677 172.25 136.967 170.925Z" stroke="#263238" stroke-miterlimit="10"/>
<path d="M384.299 114.253C401.893 114.253 416.156 99.9902 416.156 82.3961C416.156 64.8019 401.893 50.5391 384.299 50.5391C366.705 50.5391 352.442 64.8019 352.442 82.3961C352.442 99.9902 366.705 114.253 384.299 114.253Z" stroke="#263238" stroke-miterlimit="10"/>
<path d="M384.299 125.516V140.777" stroke="#263238" stroke-miterlimit="10"/>
<path d="M384.299 23.3359V38.5969" stroke="#263238" stroke-miterlimit="10"/>
<path d="M427.758 82.0547H443.019" stroke="#263238" stroke-miterlimit="10"/>
<path d="M325.579 82.0547H340.839" stroke="#263238" stroke-miterlimit="10"/>
<path d="M415.029 51.3262L425.82 40.5352" stroke="#263238" stroke-miterlimit="10"/>
<path d="M342.778 123.576L353.568 112.785" stroke="#263238" stroke-miterlimit="10"/>
<path d="M353.568 51.3262L342.778 40.5352" stroke="#263238" stroke-miterlimit="10"/>
<path d="M425.82 123.576L415.029 112.785" stroke="#263238" stroke-miterlimit="10"/>
<path d="M316.058 208.957C316.058 208.957 320.158 205.541 320.499 195.633C320.841 185.726 310.592 178.893 310.592 178.893C310.592 178.893 311.959 172.06 310.934 166.594C309.909 161.128 298.977 156.687 298.977 156.687C298.977 156.687 300.002 150.538 298.294 145.072C296.586 139.606 288.728 137.898 288.728 137.898C272.922 115.893 254.587 121.723 251.319 122.995C248.051 121.723 229.716 115.893 213.91 137.898C213.91 137.898 206.052 139.606 204.344 145.072C202.636 150.538 203.661 156.687 203.661 156.687C203.661 156.687 192.729 161.128 191.704 166.594C190.679 172.06 192.046 178.893 192.046 178.893C192.046 178.893 181.797 185.726 182.139 195.633C182.481 205.54 186.58 208.957 186.58 208.957C186.58 208.957 180.431 212.715 180.431 217.498C180.431 222.281 186.239 229.797 191.363 231.163C196.2 232.453 245.773 231.308 251.32 231.175C256.867 231.308 306.44 232.452 311.277 231.163C316.402 229.796 322.209 222.281 322.209 217.498C322.207 212.715 316.058 208.957 316.058 208.957Z" fill="#263238" stroke="#263238" stroke-miterlimit="10"/>
<path d="M228.949 201.025C228.949 201.025 196.092 218.582 190.824 225.354C185.557 232.126 202.362 304.864 202.863 307.623C203.365 310.382 204.368 318.91 236.473 321.418C268.578 323.926 284.129 317.154 286.386 314.646C288.643 312.138 290.65 310.382 290.65 310.382C290.65 310.382 316.234 231.123 312.973 225.354C309.712 219.585 287.891 206.542 281.119 203.282C274.347 200.021 271.337 199.77 271.337 199.77L228.949 201.025Z" fill="#92E3D4"/>
<path opacity="0.3" d="M228.949 201.025C228.949 201.025 196.092 218.582 190.824 225.354C185.557 232.126 202.362 304.864 202.863 307.623C203.365 310.382 204.368 318.91 236.473 321.418C268.578 323.926 284.129 317.154 286.386 314.646C288.643 312.138 290.65 310.382 290.65 310.382C290.65 310.382 316.234 231.123 312.973 225.354C309.712 219.585 287.891 206.542 281.119 203.282C274.347 200.021 271.337 199.77 271.337 199.77L228.949 201.025Z" fill="white"/>
<path opacity="0.15" d="M308.773 245.975V244.334H310.073C310.305 243.398 310.525 242.488 310.736 241.598H308.773V232.845H312.599C312.775 231.848 312.915 230.939 313.023 230.11H308.772V224.092H312.065C308.406 219.74 297.822 212.786 289.624 207.956V209.32H283.606V207.679H289.151C287.389 206.647 285.746 205.717 284.323 204.943H283.606V204.557C282.648 204.045 281.804 203.611 281.119 203.281C281.033 203.24 280.955 203.204 280.871 203.164V204.943H272.117V199.902C271.597 199.794 271.337 199.77 271.337 199.77L269.382 199.828V204.943H267.741V199.876L252.969 200.313V204.943H246.951V200.491L244.215 200.572V204.943H235.462V200.831L232.727 200.912V204.943H231.086V200.961L228.95 201.024C228.95 201.024 223.3 204.044 216.315 208.058V209.319H214.134C204.681 214.819 193.686 221.675 190.826 225.353C188.254 228.66 190.946 247.698 194.432 266.636V260.747H196.073V266.765H194.455C194.623 267.678 194.793 268.59 194.964 269.501H196.072V275.275C197.711 283.657 199.372 291.518 200.643 297.403H207.561V303.421H201.953C202.198 304.538 202.4 305.457 202.553 306.157H207.561V314.44C209.2 315.539 211.431 316.637 214.503 317.646H216.315V318.199C221.085 319.567 227.583 320.724 236.475 321.419C254.432 322.822 267.206 321.321 275.376 319.287H272.119V317.646H280.788C283.528 316.634 285.29 315.641 286.117 314.91H283.608V306.156H289.626V311.327C290.251 310.735 290.652 310.381 290.652 310.381C290.652 310.381 298.062 287.424 304.398 265.321V260.746H305.697C307.149 255.578 308.51 250.549 309.664 245.974H308.773V245.975ZM196.071 245.975H194.43V244.334H196.071V245.975ZM196.071 241.599H194.43V232.846H196.071V241.599ZM196.071 230.11H194.43V224.092H196.071V230.11ZM207.56 282.631H198.806V280.99H207.56V282.631ZM207.56 278.254H198.806V269.5H207.56V278.254ZM207.56 266.765H198.806V260.747H207.56V266.765ZM207.56 245.975H198.806V244.334H207.56V245.975ZM207.56 241.599H198.806V232.846H207.56V241.599ZM207.56 230.11H198.806V224.092H207.56V230.11ZM216.314 314.909H210.296V306.155H216.314V314.909ZM216.314 303.42H210.296V297.402H216.314V303.42ZM216.314 282.631H210.296V280.99H216.314V282.631ZM216.314 278.254H210.296V269.5H216.314V278.254ZM216.314 266.765H210.296V260.747H216.314V266.765ZM216.314 245.975H210.296V244.334H216.314V245.975ZM216.314 241.599H210.296V232.846H216.314V241.599ZM216.314 230.11H210.296V224.092H216.314V230.11ZM232.727 319.286H231.086V317.645H232.727V319.286ZM232.727 314.909H231.086V306.155H232.727V314.909ZM232.727 303.42H231.086V297.402H232.727V303.42ZM232.727 282.631H231.086V280.99H232.727V282.631ZM232.727 278.254H231.086V269.5H232.727V278.254ZM232.727 266.765H231.086V260.747H232.727V266.765ZM232.727 245.975H231.086V244.334H232.727V245.975ZM232.727 241.599H231.086V232.846H232.727V241.599ZM232.727 230.11H231.086V224.092H232.727V230.11ZM232.727 209.32H231.086V207.679H232.727V209.32ZM244.215 319.286H235.462V317.645H244.215V319.286ZM244.215 314.909H235.462V306.155H244.215V314.909ZM244.215 303.42H235.462V297.402H244.215V303.42ZM244.215 282.631H235.462V280.99H244.215V282.631ZM244.215 278.254H235.462V269.5H244.215V278.254ZM244.215 266.765H235.462V260.747H244.215V266.765ZM244.215 245.975H235.462V244.334H244.215V245.975ZM244.215 241.599H235.462V232.846H244.215V241.599ZM244.215 230.11H235.462V224.092H244.215V230.11ZM244.215 209.32H235.462V207.679H244.215V209.32ZM252.969 319.286H246.951V317.645H252.969V319.286ZM252.969 314.909H246.951V306.155H252.969V314.909ZM252.969 303.42H246.951V297.402H252.969V303.42ZM252.969 282.631H246.951V280.99H252.969V282.631ZM252.969 278.254H246.951V269.5H252.969V278.254ZM252.969 266.765H246.951V260.747H252.969V266.765ZM252.969 245.975H246.951V244.334H252.969V245.975ZM252.969 241.599H246.951V232.846H252.969V241.599ZM252.969 230.11H246.951V224.092H252.969V230.11ZM252.969 209.32H246.951V207.679H252.969V209.32ZM269.382 319.286H267.741V317.645H269.382V319.286ZM269.382 314.909H267.741V306.155H269.382V314.909ZM269.382 303.42H267.741V297.402H269.382V303.42ZM269.382 282.631H267.741V280.99H269.382V282.631ZM269.382 278.254H267.741V269.5H269.382V278.254ZM269.382 266.765H267.741V260.747H269.382V266.765ZM269.382 245.975H267.741V244.334H269.382V245.975ZM269.382 241.599H267.741V232.846H269.382V241.599ZM269.382 230.11H267.741V224.092H269.382V230.11ZM269.382 209.32H267.741V207.679H269.382V209.32ZM280.871 314.909H272.117V306.155H280.871V314.909ZM280.871 303.42H272.117V297.402H280.871V303.42ZM280.871 282.631H272.117V280.99H280.871V282.631ZM280.871 278.254H272.117V269.5H280.871V278.254ZM280.871 266.765H272.117V260.747H280.871V266.765ZM280.871 245.975H272.117V244.334H280.871V245.975ZM280.871 241.599H272.117V232.846H280.871V241.599ZM280.871 230.11H272.117V224.092H280.871V230.11ZM280.871 209.32H272.117V207.679H280.871V209.32ZM289.624 303.42H283.606V297.402H289.624V303.42ZM289.624 282.631H283.606V280.99H289.624V282.631ZM289.624 278.254H283.606V269.5H289.624V278.254ZM289.624 266.765H283.606V260.747H289.624V266.765ZM289.624 245.975H283.606V244.334H289.624V245.975ZM289.624 241.599H283.606V232.846H289.624V241.599ZM289.624 230.11H283.606V224.092H289.624V230.11ZM306.037 245.975H304.396V244.334H306.037V245.975ZM306.037 241.599H304.396V232.846H306.037V241.599ZM306.037 230.11H304.396V224.092H306.037V230.11Z" fill="black"/>
<path d="M228.949 201.025C228.949 201.025 196.092 218.582 190.824 225.354C185.557 232.126 202.362 304.864 202.863 307.623C203.365 310.382 204.368 318.91 236.473 321.418C268.578 323.926 284.129 317.154 286.386 314.646C288.643 312.138 290.65 310.382 290.65 310.382C290.65 310.382 316.234 231.123 312.973 225.354C309.712 219.585 287.891 206.542 281.119 203.282C274.347 200.021 271.337 199.77 271.337 199.77L228.949 201.025Z" stroke="#263238" stroke-miterlimit="10"/>
<path d="M188.918 395.492C188.918 395.492 183.357 396.087 180.414 398.61C177.471 401.132 175.312 409.949 175.312 409.949C175.312 409.949 165.766 430.868 163.664 435.493C161.562 440.118 162.823 444.322 164.085 444.742C165.346 445.162 171.232 445.162 171.232 445.162H193.17C193.17 445.162 194.286 443.051 193.737 441.13C192.982 438.487 190.615 435.581 191.833 433.39C193.935 429.606 202.203 416.07 198.84 405.98C195.475 395.89 188.918 395.492 188.918 395.492Z" fill="#263238" stroke="#263238" stroke-miterlimit="10"/>
<path d="M307.051 395.492C307.051 395.492 312.612 396.087 315.555 398.61C318.498 401.132 320.657 409.949 320.657 409.949C320.657 409.949 330.203 430.868 332.305 435.493C334.407 440.118 333.146 444.322 331.885 444.742C330.624 445.162 324.738 445.162 324.738 445.162H302.8C302.8 445.162 301.684 443.051 302.233 441.13C302.988 438.487 305.355 435.581 304.138 433.39C302.036 429.606 293.768 416.07 297.131 405.98C300.493 395.89 307.051 395.492 307.051 395.492Z" fill="#263238" stroke="#263238" stroke-miterlimit="10"/>
<path d="M197.953 445.944H299.185C300.009 444.376 310.708 427.59 311.374 407.4C312.127 384.575 307.972 363.746 307.972 363.746L186.56 374.844C186.56 374.844 183.801 389.642 185.808 409.959C187.712 429.238 195.258 443.468 197.953 445.944Z" fill="#A1A1A1" stroke="#263238" stroke-miterlimit="10"/>
<path d="M211.14 210.807L220.671 306.871L204.619 301.353C204.619 301.353 189.57 354.778 186.811 372.586C184.052 390.394 189.821 411.463 198.098 423.252C206.375 435.041 231.708 443.568 248.764 442.565C265.82 441.562 281.371 436.796 290.651 424.004C299.931 411.212 307.456 393.404 308.208 367.57C308.961 341.735 294.413 303.36 294.413 303.36L277.385 307.122L296.316 212.178L290.296 208.165L283.878 250.436C283.878 250.436 274.598 253.195 252.776 253.195C230.955 253.195 220.42 247.175 220.42 247.175L216.407 208.047L211.14 210.807Z" fill="white" stroke="#263238" stroke-miterlimit="10"/>
<path d="M215.376 316.512C215.376 316.512 233.454 324.921 246.487 327.443" stroke="#263238" stroke-miterlimit="10"/>
<path d="M281.382 325.34C281.382 325.34 261.653 338.068 236.397 331.226" stroke="#263238" stroke-miterlimit="10"/>
<path d="M249.85 327.444C249.85 327.444 254.895 328.285 260.781 325.762" stroke="#263238" stroke-miterlimit="10"/>
<path d="M246.004 391.397C246.004 391.397 244.75 384.625 240.235 380.11C235.72 375.595 230.202 375.094 226.189 373.839C222.176 372.585 218.163 369.324 218.163 369.324C218.163 369.324 222.929 380.36 225.938 384.122C228.948 387.884 232.961 390.393 235.469 390.894C237.978 391.397 246.004 391.397 246.004 391.397Z" fill="#92E3D4" stroke="#263238" stroke-miterlimit="10"/>
<path d="M253.529 350.265C253.529 350.265 253.529 343.994 256.037 340.985C258.545 337.975 271.839 333.711 271.839 333.711C271.839 333.711 268.077 341.486 262.809 345.75C257.542 350.014 253.529 350.265 253.529 350.265Z" fill="#92E3D4" stroke="#263238" stroke-miterlimit="10"/>
<path d="M250.017 355.532C250.017 355.532 247.007 355.281 246.004 347.255C245.001 339.229 249.766 324.43 249.766 324.43C249.766 324.43 254.782 336.469 254.03 343.994C253.278 351.519 252.526 351.268 250.017 355.532Z" fill="#92E3D4" stroke="#263238" stroke-miterlimit="10"/>
<path d="M254.031 377.103C254.031 377.103 254.533 366.569 261.305 362.806C268.077 359.044 277.608 355.281 277.608 355.281C277.608 355.281 274.849 364.561 271.087 368.574C267.325 372.587 263.562 377.353 260.051 378.607C256.539 379.862 254.031 377.103 254.031 377.103Z" fill="#92E3D4" stroke="#263238" stroke-miterlimit="10"/>
<path d="M244.249 359.543C244.249 359.543 241.49 352.018 233.965 346.25C226.44 340.481 222.176 340.23 222.176 340.23C222.176 340.23 223.932 350.764 229.951 356.032C235.972 361.299 244.249 359.543 244.249 359.543Z" fill="#92E3D4" stroke="#263238" stroke-miterlimit="10"/>
<path d="M250.268 409.208V348.008" stroke="#263238" stroke-miterlimit="10"/>
<path d="M250.519 395.16L237.477 383.371" stroke="#263238" stroke-miterlimit="10"/>
<path d="M250.77 380.862L264.816 368.07" stroke="#263238" stroke-miterlimit="10"/>
<path d="M250.268 364.308L233.965 352.52" stroke="#263238" stroke-miterlimit="10"/>
<path d="M250.77 353.022L259.047 344.996" stroke="#263238" stroke-miterlimit="10"/>
<path d="M308.719 447.322C308.719 447.322 278.084 426.62 274.649 422.499C271.215 418.378 265.447 413.665 260.295 411.605C255.144 409.544 251.366 406.797 241.406 411.605C231.446 416.413 230.597 422.982 228.446 424.506C226.295 426.029 195.386 448.009 195.386 448.009L185.426 451.787C185.426 451.787 200.537 451.1 204.315 450.413C208.093 449.726 217.022 449.726 217.022 449.726C217.022 449.726 207.749 453.847 212.901 454.191C218.053 454.534 227.669 450.757 230.073 450.413C232.477 450.07 234.194 450.07 242.437 452.474C250.679 454.878 252.053 455.908 253.083 455.221C254.113 454.534 256.517 451.443 256.517 451.443C256.517 451.443 250.679 452.473 268.194 454.534C285.709 456.595 285.022 451.443 285.022 451.443C285.022 451.443 291.204 451.443 297.042 451.1C302.88 450.757 305.628 452.817 311.466 452.817C317.305 452.817 308.719 447.322 308.719 447.322Z" fill="#263238" stroke="#263238" stroke-miterlimit="10"/>
<path d="M260.301 233.131L256.789 305.618L273.594 303.862L276.604 217.078C276.604 217.078 270.585 231.626 260.301 233.131Z" fill="#A1A1A1" stroke="#263238" stroke-miterlimit="10"/>
<path d="M229.45 196.011C229.45 196.011 225.939 199.272 226.189 201.027C226.44 202.783 224.182 203.786 225.436 208.301C226.69 212.816 238.73 238.65 241.99 240.908C245.251 243.165 254.28 245.924 258.795 242.664C263.31 239.403 276.102 222.849 277.606 214.321C279.111 205.793 279.863 201.028 275.349 195.51C270.834 189.992 270.834 189.992 270.834 189.992C270.834 189.992 269.329 198.52 256.537 202.784C243.747 207.047 229.45 196.011 229.45 196.011Z" fill="#A1A1A1" stroke="#263238" stroke-miterlimit="10"/>
<path d="M235.972 204.035C235.972 204.035 250.018 229.368 253.78 227.361C257.542 225.354 264.565 201.777 264.565 201.777L235.972 204.035Z" fill="white" stroke="#263238" stroke-miterlimit="10"/>
<path d="M253.78 227.362C253.78 227.362 247.008 230.623 243.496 230.623C239.985 230.623 233.463 220.59 230.453 215.574" stroke="#263238" stroke-miterlimit="10"/>
<path d="M273.093 193C273.093 193 275.601 202.029 273.595 210.808C271.589 219.587 268.328 228.616 261.556 231.124" stroke="#263238" stroke-miterlimit="10"/>
<path d="M280.83 165.156C280.83 165.156 281.16 158.141 285.312 160.614C289.464 163.087 284.676 174.143 282.549 176.664C280.422 179.185 277.588 180.709 277.588 180.709L279.731 167.168L280.83 165.156Z" fill="white" stroke="#263238" stroke-miterlimit="10"/>
<path d="M218.186 162.373C218.186 162.373 221.416 184.998 223.681 190.24C225.946 195.483 235.636 207.824 243.007 211.275C250.378 214.726 256.033 211.928 258.891 209.903C261.748 207.878 269.708 198.801 274.08 191.255C278.452 183.708 280.049 160.404 280.049 160.404L278.314 143.887C278.314 143.887 243.144 122.864 235.812 123.921C228.481 124.978 214.901 152.13 215.753 155.379C216.605 158.628 218.186 162.373 218.186 162.373Z" fill="white" stroke="#263238" stroke-miterlimit="10"/>
<path d="M245.778 189.715C245.778 189.715 249.142 192.946 255.06 189.895" stroke="#263238" stroke-miterlimit="10"/>
<path d="M242.925 197.002C242.925 197.002 249.46 202.212 258.031 196.137" stroke="#263238" stroke-miterlimit="10"/>
<path d="M228.285 166.554C228.285 166.554 234.251 162.502 240.424 164.709" stroke="#263238" stroke-miterlimit="10"/>
<path d="M257.481 165.081C257.481 165.081 265.397 162.266 269.671 167.493" stroke="#263238" stroke-miterlimit="10"/>
<path d="M237.208 174.376C237.133 175.967 236.285 177.263 235.314 177.271C234.343 177.278 233.616 175.994 233.691 174.403C233.766 172.812 234.614 171.516 235.585 171.508C236.556 171.501 237.283 172.785 237.208 174.376Z" fill="#263238"/>
<path d="M263.834 174.177C263.759 175.768 262.911 177.064 261.94 177.072C260.969 177.079 260.242 175.795 260.317 174.204C260.392 172.613 261.24 171.317 262.211 171.309C263.182 171.302 263.909 172.586 263.834 174.177Z" fill="#263238"/>
<path d="M240.09 134.408C240.09 134.408 238.418 137.927 236.138 143.705C233.858 149.483 228.061 155.287 224.737 156.564C221.413 157.841 218.124 158.367 218.124 158.367C218.124 158.367 220.196 162.359 218.187 162.374C216.178 162.389 214.415 157.143 214.415 157.143C214.415 157.143 207.703 139.662 211.879 125.605C216.055 111.548 228.54 107.697 228.54 107.697C228.54 107.697 235.016 98.131 253.246 100.247C271.477 102.363 280.668 109.808 287.046 129.044C293.424 148.281 283.887 158.872 282.572 160.134C281.257 161.396 282.121 164.395 280.829 165.156C279.538 165.917 277.968 161.922 277.968 161.922C277.968 161.922 268.804 159.236 261.515 154.032C254.227 148.828 245.725 137.371 243.834 134.88C241.943 132.39 240.09 134.408 240.09 134.408Z" fill="#263238" stroke="#263238" stroke-miterlimit="10"/>
<path d="M218.186 162.374C218.186 162.374 215.36 158.388 213.186 161.911C211.012 165.434 211.997 171.187 214.093 174.677C216.189 178.167 221.173 180.459 221.173 180.459L218.186 162.374Z" fill="white" stroke="#263238" stroke-miterlimit="10"/>
<path d="M209.134 213.316C209.134 213.316 177.28 231.375 175.524 239.652C173.768 247.929 182.045 297.842 182.045 297.842L181.794 336.468C181.794 336.468 190.823 331.702 198.348 331.702C205.873 331.702 211.14 331.953 211.14 331.953C211.14 331.953 206.374 299.848 206.374 298.845C206.374 297.842 206.625 244.417 206.625 244.417" fill="#92E3D4"/>
<path opacity="0.3" d="M209.134 213.316C209.134 213.316 177.28 231.375 175.524 239.652C173.768 247.929 182.045 297.842 182.045 297.842L181.794 336.468C181.794 336.468 190.823 331.702 198.348 331.702C205.873 331.702 211.14 331.953 211.14 331.953C211.14 331.953 206.374 299.848 206.374 298.845C206.374 297.842 206.625 244.417 206.625 244.417" fill="white"/>
<path opacity="0.15" d="M207.56 307.526V314.912H198.806V306.158H207.364C207.224 305.176 207.093 304.254 206.975 303.422H198.806V297.404H206.38C206.391 294.873 206.416 289.281 206.447 282.633H198.806V280.992H206.455C206.459 280.094 206.463 279.181 206.468 278.257H198.807V269.503H206.509C206.513 268.586 206.518 267.673 206.522 266.767H198.807V260.749H206.55C206.581 254.144 206.607 248.569 206.619 245.977H198.807V244.336H206.633L206.854 241.6H198.808V232.847H207.56L209.135 213.316C209.135 213.316 188.689 224.911 179.659 233.778V241.6H175.313C175.276 242.386 175.273 243.306 175.297 244.336H179.659V245.977H175.356C175.539 249.95 176.046 255.16 176.704 260.749H179.659V266.767H177.449C177.567 267.678 177.687 268.591 177.809 269.503H179.658V278.257H179.028C179.162 279.186 179.296 280.098 179.427 280.992H179.658V282.551C180.96 291.295 182.045 297.843 182.045 297.843L181.794 336.469C181.794 336.469 190.823 331.703 198.348 331.703C205.873 331.703 211.14 331.954 211.14 331.954C211.14 331.954 208.971 317.343 207.56 307.526ZM198.806 224.095H207.56V230.113H198.806V224.095ZM196.071 319.289H194.43V317.648H196.071V319.289ZM196.071 314.912H194.43V306.158H196.071V314.912ZM196.071 303.423H194.43V297.405H196.071V303.423ZM196.071 282.634H194.43V280.993H196.071V282.634ZM196.071 278.257H194.43V269.503H196.071V278.257ZM196.071 266.768H194.43V260.75H196.071V266.768ZM196.071 245.978H194.43V244.337H196.071V245.978ZM196.071 241.602H194.43V232.849H196.071V241.602ZM196.071 230.113H194.43V224.095H196.071V230.113ZM207.56 319.289H198.806V317.648H207.56V319.289Z" fill="black"/>
<path d="M209.134 213.316C209.134 213.316 177.28 231.375 175.524 239.652C173.768 247.929 182.045 297.842 182.045 297.842L181.794 336.468C181.794 336.468 190.823 331.702 198.348 331.702C205.873 331.702 211.14 331.953 211.14 331.953C211.14 331.953 206.374 299.848 206.374 298.845C206.374 297.842 206.625 244.417 206.625 244.417" stroke="#263238" stroke-miterlimit="10"/>
<path d="M193.583 323.931C193.583 323.931 183.55 328.947 180.791 331.706C178.032 334.465 177.28 335.468 178.032 336.472C178.784 337.475 180.289 353.528 182.296 355.283C184.303 357.039 190.824 360.049 201.609 356.537C212.394 353.025 215.153 349.263 215.655 346.755C216.157 344.247 214.903 342.24 213.648 334.716C212.395 327.192 209.134 320.921 193.583 323.931Z" fill="#A1A1A1" stroke="#263238" stroke-miterlimit="10"/>
<path d="M210.639 346.253C210.639 346.253 206.124 344.748 197.346 345.751C188.568 346.754 187.062 351.52 187.062 351.52C187.062 351.52 201.61 391.15 204.87 398.423C208.131 405.697 203.867 415.73 203.365 418.489C202.863 421.248 202.863 430.779 202.863 430.779C202.863 430.779 206.625 440.059 206.375 443.069C206.124 446.079 209.385 445.577 209.636 443.32C209.887 441.063 207.629 433.287 207.629 433.287C207.629 433.287 217.662 441.313 218.414 442.066C219.166 442.819 222.176 442.066 220.671 439.809C219.166 437.552 215.905 434.04 215.905 434.04C215.905 434.04 222.175 438.555 223.931 438.053C225.687 437.551 225.185 436.046 225.185 436.046C225.185 436.046 227.693 436.046 227.944 434.039C228.195 432.032 224.433 424.257 224.182 422.501C223.931 420.745 227.192 413.973 227.192 413.973C227.192 413.973 233.713 418.739 235.72 418.989C237.727 419.24 243.245 417.484 241.99 414.976C240.736 412.468 238.479 413.22 234.465 409.96C230.452 406.699 224.934 405.194 223.178 404.944C221.422 404.693 219.165 401.934 219.165 401.934L210.639 346.253Z" fill="white" stroke="#263238" stroke-miterlimit="10"/>
<path d="M218.916 414.477L215.906 421.249L225.186 436.047" stroke="#263238" stroke-miterlimit="10"/>
<path d="M212.645 420.246C212.645 420.246 208.381 428.774 210.388 429.276C212.395 429.778 215.906 434.042 215.906 434.042" stroke="#263238" stroke-miterlimit="10"/>
<path d="M207.88 422.754C207.88 422.754 203.867 427.269 204.87 429.025C205.873 430.781 207.629 433.289 207.629 433.289" stroke="#263238" stroke-miterlimit="10"/>
<path d="M206.375 298.846L196.091 270.754" stroke="#263238" stroke-miterlimit="10"/>
<path d="M298.701 213.941C298.701 213.941 324.631 226.862 326.386 235.139C328.142 243.416 316.787 297.844 316.787 297.844L317.038 336.47C317.038 336.47 308.008 331.704 300.484 331.704C292.96 331.704 287.692 331.955 287.692 331.955C287.692 331.955 292.458 299.85 292.458 298.847C292.458 297.844 292.207 244.419 292.207 244.419" fill="#92E3D4"/>
<path opacity="0.3" d="M298.701 213.941C298.701 213.941 324.631 226.862 326.386 235.139C328.142 243.416 316.787 297.844 316.787 297.844L317.038 336.47C317.038 336.47 308.008 331.704 300.484 331.704C292.96 331.704 287.692 331.955 287.692 331.955C287.692 331.955 292.458 299.85 292.458 298.847C292.458 297.844 292.207 244.419 292.207 244.419" fill="white"/>
<path opacity="0.15" d="M326.28 234.779V241.601H320.262V232.848H325.382C324.824 231.96 324.08 231.044 323.183 230.113H320.262V227.427C319.401 226.71 318.48 225.996 317.526 225.29V230.113H308.773V224.095H315.869C308.024 218.589 298.7 213.941 298.7 213.941L292.206 244.419C292.206 244.419 292.457 297.844 292.457 298.847C292.457 299.412 290.945 309.848 289.624 318.854V319.289H289.56C288.563 326.085 287.692 331.955 287.692 331.955C287.692 331.955 292.959 331.704 300.484 331.704C304.218 331.704 308.321 332.878 311.509 334.06H317.022L316.926 319.289H308.772V317.648H316.915L316.897 314.912H308.772V306.158H316.84L316.822 303.422H308.771V297.404H316.876C317.264 295.53 318.86 287.756 320.65 278.256H320.259V269.502H322.259C322.422 268.593 322.583 267.68 322.743 266.766H320.259V260.748H323.769C324.651 255.418 325.421 250.289 325.929 245.976H320.259V244.335H326.113C326.572 240.038 326.721 236.73 326.383 235.137C326.361 235.02 326.314 234.898 326.28 234.779ZM306.037 319.288H304.396V317.647H306.037V319.288ZM306.037 314.911H304.396V306.157H306.037V314.911ZM306.037 303.422H304.396V297.404H306.037V303.422ZM306.037 282.633H304.396V280.992H306.037V282.633ZM306.037 278.256H304.396V269.502H306.037V278.256ZM306.037 266.767H304.396V260.749H306.037V266.767ZM306.037 245.977H304.396V244.336H306.037V245.977ZM306.037 241.601H304.396V232.848H306.037V241.601ZM306.037 230.112H304.396V224.094H306.037V230.112ZM317.526 282.633H308.773V280.992H317.526V282.633ZM317.526 278.256H308.773V269.502H317.526V278.256ZM317.526 266.767H308.773V260.749H317.526V266.767ZM317.526 245.977H308.773V244.336H317.526V245.977ZM317.526 241.601H308.773V232.848H317.526V241.601Z" fill="black"/>
<path d="M298.701 213.941C298.701 213.941 324.631 226.862 326.386 235.139C328.142 243.416 316.787 297.844 316.787 297.844L317.038 336.47C317.038 336.47 308.008 331.704 300.484 331.704C292.96 331.704 287.692 331.955 287.692 331.955C287.692 331.955 292.458 299.85 292.458 298.847C292.458 297.844 292.207 244.419 292.207 244.419" stroke="#263238" stroke-miterlimit="10"/>
<path d="M305.249 323.931C305.249 323.931 311.374 324.631 318.041 331.706C320.717 334.546 321.553 335.468 320.8 336.472C320.048 337.475 318.543 353.528 316.536 355.283C314.529 357.039 308.008 360.049 297.223 356.537C286.438 353.025 283.679 349.263 283.177 346.755C282.675 344.247 283.929 342.24 285.184 334.716C286.438 327.192 289.699 320.921 305.249 323.931Z" fill="#A1A1A1" stroke="#263238" stroke-miterlimit="10"/>
<path d="M288.194 346.253C288.194 346.253 292.709 344.748 301.487 345.751C310.265 346.754 311.771 351.52 311.771 351.52C311.771 351.52 297.224 391.15 293.963 398.423C290.702 405.697 294.966 415.73 295.468 418.489C295.97 421.248 295.97 430.779 295.97 430.779C295.97 430.779 292.208 440.059 292.458 443.069C292.709 446.079 289.448 445.577 289.197 443.32C288.946 441.063 291.204 433.287 291.204 433.287C291.204 433.287 281.171 441.313 280.419 442.066C279.667 442.819 276.657 442.066 278.162 439.809C279.667 437.552 282.928 434.04 282.928 434.04C282.928 434.04 276.657 438.555 274.902 438.053C273.146 437.551 273.648 436.046 273.648 436.046C273.648 436.046 271.14 436.046 270.889 434.039C270.638 432.032 274.401 424.257 274.651 422.501C274.902 420.745 271.641 413.973 271.641 413.973C271.641 413.973 265.12 418.739 263.113 418.989C261.106 419.24 255.588 417.484 256.842 414.976C258.096 412.468 260.354 413.22 264.367 409.96C268.38 406.699 273.898 405.194 275.654 404.944C277.41 404.693 279.667 401.934 279.667 401.934L288.194 346.253Z" fill="white" stroke="#263238" stroke-miterlimit="10"/>
<path d="M279.917 414.477L282.926 421.249L273.646 436.047" stroke="#263238" stroke-miterlimit="10"/>
<path d="M286.187 420.246C286.187 420.246 290.451 428.774 288.444 429.276C286.437 429.778 282.926 434.042 282.926 434.042" stroke="#263238" stroke-miterlimit="10"/>
<path d="M290.953 422.754C290.953 422.754 294.966 427.269 293.963 429.025C292.96 430.781 291.204 433.289 291.204 433.289" stroke="#263238" stroke-miterlimit="10"/>
<path d="M292.458 298.846L302.741 270.754" stroke="#263238" stroke-miterlimit="10"/>
</svg>
